999
"DXF R12 Output" (www.mydxf.blogspot.com)
 0 
SECTION
 2 
HEADER
 9 
$ACADVER
 1 
AC1009
 9 
$EXTMIN
 10 
 0 
 20 
 0 
 9 
$EXTMAX
 10 
 8.5 
 20 
 11 
 0 
ENDSEC
 0 
SECTION
 2 
ENTITIES
0
LINE
8
Layer 1
10
35.904498
20
68.114289
11
33.605124
21
68.027983
0
LINE
8
Layer 1
10
33.605124
20
68.027983
11
31.341845
21
67.772449
0
LINE
8
Layer 1
10
31.341845
20
67.772449
11
29.122264
21
67.352768
0
LINE
8
Layer 1
10
29.122264
20
67.352768
11
26.953984
21
66.774021
0
LINE
8
Layer 1
10
26.953984
20
66.774021
11
24.844606
21
66.041286
0
LINE
8
Layer 1
10
24.844606
20
66.041286
11
22.801734
21
65.159645
0
LINE
8
Layer 1
10
22.801734
20
65.159645
11
20.832970
21
64.134176
0
LINE
8
Layer 1
10
20.832970
20
64.134176
11
18.945917
21
62.969960
0
LINE
8
Layer 1
10
18.945917
20
62.969960
11
17.148178
21
61.672077
0
LINE
8
Layer 1
10
17.148178
20
61.672077
11
15.447355
21
60.245606
0
LINE
8
Layer 1
10
15.447355
20
60.245606
11
13.851051
21
58.695628
0
LINE
8
Layer 1
10
13.851051
20
58.695628
11
12.366869
21
57.027222
0
LINE
8
Layer 1
10
12.366869
20
57.027222
11
11.002411
21
55.245469
0
LINE
8
Layer 1
10
11.002411
20
55.245469
11
9.765280
21
53.355449
0
LINE
8
Layer 1
10
9.765280
20
53.355449
11
8.663078
21
51.362240
0
LINE
8
Layer 1
10
8.663078
20
51.362240
11
7.703409
21
49.270924
0
LINE
8
Layer 1
10
7.703409
20
49.270924
11
6.903214
21
47.113551
0
LINE
8
Layer 1
10
6.903214
20
47.113551
11
6.273177
21
44.924766
0
LINE
8
Layer 1
10
6.273177
20
44.924766
11
5.811514
21
42.713536
0
LINE
8
Layer 1
10
5.811514
20
42.713536
11
5.516442
21
40.488829
0
LINE
8
Layer 1
10
5.516442
20
40.488829
11
5.386176
21
38.259612
0
LINE
8
Layer 1
10
5.386176
20
38.259612
11
5.418934
21
36.034855
0
LINE
8
Layer 1
10
5.418934
20
36.034855
11
5.612930
21
33.823524
0
LINE
8
Layer 1
10
5.612930
20
33.823524
11
5.966381
21
31.634589
0
LINE
8
Layer 1
10
5.966381
20
31.634589
11
6.477504
21
29.477016
0
LINE
8
Layer 1
10
6.477504
20
29.477016
11
7.144514
21
27.359774
0
LINE
8
Layer 1
10
7.144514
20
27.359774
11
7.965628
21
25.291830
0
LINE
8
Layer 1
10
7.965628
20
25.291830
11
8.939062
21
23.282153
0
LINE
8
Layer 1
10
8.939062
20
23.282153
11
10.063032
21
21.339711
0
LINE
8
Layer 1
10
10.063032
20
21.339711
11
11.335754
21
19.473471
0
LINE
8
Layer 1
10
11.335754
20
19.473471
11
12.755444
21
17.692402
0
LINE
8
Layer 1
10
12.755444
20
17.692402
11
14.320319
21
16.005471
0
LINE
8
Layer 1
10
14.320319
20
16.005471
11
16.007250
21
14.440597
0
LINE
8
Layer 1
10
16.007250
20
14.440597
11
17.788319
21
13.020906
0
LINE
8
Layer 1
10
17.788319
20
13.020906
11
19.654559
21
11.748184
0
LINE
8
Layer 1
10
19.654559
20
11.748184
11
21.597001
21
10.624215
0
LINE
8
Layer 1
10
21.597001
20
10.624215
11
23.606678
21
9.650781
0
LINE
8
Layer 1
10
23.606678
20
9.650781
11
25.674621
21
8.829667
0
LINE
8
Layer 1
10
25.674621
20
8.829667
11
27.791863
21
8.162657
0
LINE
8
Layer 1
10
27.791863
20
8.162657
11
29.949436
21
7.651534
0
LINE
8
Layer 1
10
29.949436
20
7.651534
11
32.138372
21
7.298082
0
LINE
8
Layer 1
10
32.138372
20
7.298082
11
34.349702
21
7.104086
0
LINE
8
Layer 1
10
34.349702
20
7.104086
11
36.574460
21
7.071329
0
LINE
8
Layer 1
10
36.574460
20
7.071329
11
38.803676
21
7.201594
0
LINE
8
Layer 1
10
38.803676
20
7.201594
11
41.028383
21
7.496666
0
LINE
8
Layer 1
10
41.028383
20
7.496666
11
43.239614
21
7.958329
0
LINE
8
Layer 1
10
43.239614
20
7.958329
11
45.428399
21
8.588366
0
LINE
8
Layer 1
10
45.428399
20
8.588366
11
47.585771
21
9.388561
0
LINE
8
Layer 1
10
47.585771
20
9.388561
11
49.677088
21
10.348231
0
LINE
8
Layer 1
10
49.677088
20
10.348231
11
51.670296
21
11.450432
0
LINE
8
Layer 1
10
51.670296
20
11.450432
11
53.560317
21
12.687563
0
LINE
8
Layer 1
10
53.560317
20
12.687563
11
55.342070
21
14.052021
0
LINE
8
Layer 1
10
55.342070
20
14.052021
11
57.010475
21
15.536204
0
LINE
8
Layer 1
10
57.010475
20
15.536204
11
58.560454
21
17.132508
0
LINE
8
Layer 1
10
58.560454
20
17.132508
11
59.986924
21
18.833330
0
LINE
8
Layer 1
10
59.986924
20
18.833330
11
61.284808
21
20.631070
0
LINE
8
Layer 1
10
61.284808
20
20.631070
11
62.449024
21
22.518122
0
LINE
8
Layer 1
10
62.449024
20
22.518122
11
63.474492
21
24.486886
0
LINE
8
Layer 1
10
63.474492
20
24.486886
11
64.356134
21
26.529758
0
LINE
8
Layer 1
10
64.356134
20
26.529758
11
65.088868
21
28.639136
0
LINE
8
Layer 1
10
65.088868
20
28.639136
11
65.667616
21
30.807417
0
LINE
8
Layer 1
10
65.667616
20
30.807417
11
66.087296
21
33.026998
0
LINE
8
Layer 1
10
66.087296
20
33.026998
11
66.342830
21
35.290277
0
LINE
8
Layer 1
10
66.342830
20
35.290277
11
66.429137
21
37.589650
0
LINE
8
Layer 1
10
66.429137
20
37.589650
11
66.279770
21
40.606636
0
LINE
8
Layer 1
10
66.279770
20
40.606636
11
65.837195
21
43.572520
0
LINE
8
Layer 1
10
65.837195
20
43.572520
11
65.109704
21
46.467288
0
LINE
8
Layer 1
10
65.109704
20
46.467288
11
64.105587
21
49.270924
0
LINE
8
Layer 1
10
64.105587
20
49.270924
11
62.833135
21
51.963412
0
LINE
8
Layer 1
10
62.833135
20
51.963412
11
61.300639
21
54.524735
0
LINE
8
Layer 1
10
61.300639
20
54.524735
11
59.516389
21
56.934880
0
LINE
8
Layer 1
10
59.516389
20
56.934880
11
57.488677
21
59.173830
0
LINE
8
Layer 1
10
57.488677
20
59.173830
11
55.249728
21
61.201542
0
LINE
8
Layer 1
10
55.249728
20
61.201542
11
52.839583
21
62.985791
0
LINE
8
Layer 1
10
52.839583
20
62.985791
11
50.278259
21
64.518288
0
LINE
8
Layer 1
10
50.278259
20
64.518288
11
47.585771
21
65.790739
0
LINE
8
Layer 1
10
47.585771
20
65.790739
11
44.782136
21
66.794856
0
LINE
8
Layer 1
10
44.782136
20
66.794856
11
41.887368
21
67.522347
0
LINE
8
Layer 1
10
41.887368
20
67.522347
11
38.921483
21
67.964922
0
LINE
8
Layer 1
10
38.921483
20
67.964922
11
35.904498
21
68.114289
0
LINE
8
Layer 1
10
35.904498
20
68.114289
11
35.904498
21
68.114289
0
LINE
8
Layer 1
10
34.073560
20
8.896435
11
33.482415
21
9.140572
0
LINE
8
Layer 1
10
33.482415
20
9.140572
11
32.925115
21
9.603487
0
LINE
8
Layer 1
10
32.925115
20
9.603487
11
32.428754
21
10.215220
0
LINE
8
Layer 1
10
32.428754
20
10.215220
11
32.127800
21
10.869766
0
LINE
8
Layer 1
10
32.127800
20
10.869766
11
32.023380
21
11.563370
0
LINE
8
Layer 1
10
32.023380
20
11.563370
11
32.116625
21
12.292277
0
LINE
8
Layer 1
10
32.116625
20
12.292277
11
32.432710
21
13.013568
0
LINE
8
Layer 1
10
32.432710
20
13.013568
11
32.960518
21
13.618665
0
LINE
8
Layer 1
10
32.960518
20
13.618665
11
33.665428
21
14.077683
0
LINE
8
Layer 1
10
33.665428
20
14.077683
11
34.512815
21
14.360732
0
LINE
8
Layer 1
10
34.512815
20
14.360732
11
35.346400
21
14.395131
0
LINE
8
Layer 1
10
35.346400
20
14.395131
11
36.212512
21
14.121330
0
LINE
8
Layer 1
10
36.212512
20
14.121330
11
36.913006
21
13.645935
0
LINE
8
Layer 1
10
36.913006
20
13.645935
11
37.388650
21
12.944001
0
LINE
8
Layer 1
10
37.388650
20
12.944001
11
37.618491
21
12.287258
0
LINE
8
Layer 1
10
37.618491
20
12.287258
11
37.689547
21
11.646319
0
LINE
8
Layer 1
10
37.689547
20
11.646319
11
37.601641
21
11.007626
0
LINE
8
Layer 1
10
37.601641
20
11.007626
11
37.354594
21
10.357622
0
LINE
8
Layer 1
10
37.354594
20
10.357622
11
36.590568
21
9.407511
0
LINE
8
Layer 1
10
36.590568
20
9.407511
11
35.531029
21
8.878049
0
LINE
8
Layer 1
10
35.531029
20
8.878049
11
34.073560
21
8.896444
0
LINE
8
Layer 1
10
34.073560
20
8.896444
11
34.073560
21
8.896435
0
LINE
8
Layer 1
10
36.344505
20
12.213127
11
36.580928
21
12.464196
0
LINE
8
Layer 1
10
36.580928
20
12.464196
11
36.615337
21
12.771940
0
LINE
8
Layer 1
10
36.615337
20
12.771940
11
36.067439
21
13.325660
0
LINE
8
Layer 1
10
36.067439
20
13.325660
11
35.587070
21
12.988587
0
LINE
8
Layer 1
10
35.587070
20
12.988587
11
35.531350
21
12.562530
0
LINE
8
Layer 1
10
35.531350
20
12.562530
11
35.736430
21
12.235354
0
LINE
8
Layer 1
10
35.736430
20
12.235354
11
36.028823
21
12.095965
0
LINE
8
Layer 1
10
36.028823
20
12.095965
11
36.344505
21
12.213127
0
LINE
8
Layer 1
10
36.344505
20
12.213127
11
36.344505
21
12.213127
0
LINE
8
Layer 1
10
38.040292
20
13.657957
11
37.158074
21
14.667965
0
LINE
8
Layer 1
10
37.158074
20
14.667965
11
37.023767
21
14.849976
0
LINE
8
Layer 1
10
37.023767
20
14.849976
11
37.371409
21
15.073345
0
LINE
8
Layer 1
10
37.371409
20
15.073345
11
38.305261
21
15.664319
0
LINE
8
Layer 1
10
38.305261
20
15.664319
11
39.230663
21
16.465508
0
LINE
8
Layer 1
10
39.230663
20
16.465508
11
40.417768
21
17.959895
0
LINE
8
Layer 1
10
40.417768
20
17.959895
11
41.542642
21
19.973058
0
LINE
8
Layer 1
10
41.542642
20
19.973058
11
43.017761
21
23.567158
0
LINE
8
Layer 1
10
43.017761
20
23.567158
11
43.214145
21
24.333705
0
LINE
8
Layer 1
10
43.214145
20
24.333705
11
42.712246
21
24.571689
0
LINE
8
Layer 1
10
42.712246
20
24.571689
11
39.060409
21
25.840935
0
LINE
8
Layer 1
10
39.060409
20
25.840935
11
38.210321
21
26.278742
0
LINE
8
Layer 1
10
38.210321
20
26.278742
11
37.888857
21
26.472692
0
LINE
8
Layer 1
10
37.888857
20
26.472692
11
38.987941
21
27.174115
0
LINE
8
Layer 1
10
38.987941
20
27.174115
11
39.454309
21
27.250833
0
LINE
8
Layer 1
10
39.454309
20
27.250833
11
40.158386
21
27.007894
0
LINE
8
Layer 1
10
40.158386
20
27.007894
11
42.822161
21
26.151851
0
LINE
8
Layer 1
10
42.822161
20
26.151851
11
43.433210
21
25.878572
0
LINE
8
Layer 1
10
43.433210
20
25.878572
11
43.552708
21
25.826882
0
LINE
8
Layer 1
10
43.552708
20
25.826882
11
43.652332
21
26.017323
0
LINE
8
Layer 1
10
43.652332
20
26.017323
11
43.908176
21
27.528249
0
LINE
8
Layer 1
10
43.908176
20
27.528249
11
44.140005
21
29.426150
0
LINE
8
Layer 1
10
44.140005
20
29.426150
11
44.304204
21
30.238475
0
LINE
8
Layer 1
10
44.304204
20
30.238475
11
45.713088
21
30.993227
0
LINE
8
Layer 1
10
45.713088
20
30.993227
11
45.725882
21
30.678019
0
LINE
8
Layer 1
10
45.725882
20
30.678019
11
45.615241
21
29.519539
0
LINE
8
Layer 1
10
45.615241
20
29.519539
11
45.248701
21
26.401508
0
LINE
8
Layer 1
10
45.248701
20
26.401508
11
45.150553
21
25.538958
0
LINE
8
Layer 1
10
45.150553
20
25.538958
11
46.229852
21
25.364201
0
LINE
8
Layer 1
10
46.229852
20
25.364201
11
48.989295
21
24.949429
0
LINE
8
Layer 1
10
48.989295
20
24.949429
11
48.951603
21
24.647294
0
LINE
8
Layer 1
10
48.951603
20
24.647294
11
48.772166
21
23.911714
0
LINE
8
Layer 1
10
48.772166
20
23.911714
11
48.630434
21
23.457817
0
LINE
8
Layer 1
10
48.630434
20
23.457817
11
46.094920
21
23.871619
0
LINE
8
Layer 1
10
46.094920
20
23.871619
11
44.843369
21
24.091542
0
LINE
8
Layer 1
10
44.843369
20
24.091542
11
44.608131
21
23.633519
0
LINE
8
Layer 1
10
44.608131
20
23.633519
11
43.825116
21
21.267202
0
LINE
8
Layer 1
10
43.825116
20
21.267202
11
42.760323
21
18.801709
0
LINE
8
Layer 1
10
42.760323
20
18.801709
11
41.517443
21
16.634321
0
LINE
8
Layer 1
10
41.517443
20
16.634321
11
40.018148
21
14.739085
0
LINE
8
Layer 1
10
40.018148
20
14.739085
11
38.264009
21
13.384229
0
LINE
8
Layer 1
10
38.264009
20
13.384229
11
38.040292
21
13.657957
0
LINE
8
Layer 1
10
38.040292
20
13.657957
11
38.040292
21
13.657957
0
LINE
8
Layer 1
10
32.067850
20
14.804487
11
30.991742
21
16.126725
0
LINE
8
Layer 1
10
30.991742
20
16.126725
11
29.786771
21
18.040334
0
LINE
8
Layer 1
10
29.786771
20
18.040334
11
28.741553
21
20.090720
0
LINE
8
Layer 1
10
28.741553
20
20.090720
11
27.862524
21
22.550021
0
LINE
8
Layer 1
10
27.862524
20
22.550021
11
27.427665
21
23.911368
0
LINE
8
Layer 1
10
27.427665
20
23.911368
11
25.347022
21
23.631728
0
LINE
8
Layer 1
10
25.347022
20
23.631728
11
22.213668
21
23.400096
0
LINE
8
Layer 1
10
22.213668
20
23.400096
11
20.613286
21
23.473131
0
LINE
8
Layer 1
10
20.613286
20
23.473131
11
19.118186
21
23.778432
0
LINE
8
Layer 1
10
19.118186
20
23.778432
11
17.681153
21
24.257198
0
LINE
8
Layer 1
10
17.681153
20
24.257198
11
16.278124
21
24.979254
0
LINE
8
Layer 1
10
16.278124
20
24.979254
11
15.806229
21
25.302766
0
LINE
8
Layer 1
10
15.806229
20
25.302766
11
15.957352
21
25.417909
0
LINE
8
Layer 1
10
15.957352
20
25.417909
11
16.387485
21
25.566888
0
LINE
8
Layer 1
10
16.387485
20
25.566888
11
17.030455
21
26.241773
0
LINE
8
Layer 1
10
17.030455
20
26.241773
11
17.186051
21
26.348395
0
LINE
8
Layer 1
10
17.186051
20
26.348395
11
17.716362
21
26.100740
0
LINE
8
Layer 1
10
17.716362
20
26.100740
11
18.645384
21
25.634378
0
LINE
8
Layer 1
10
18.645384
20
25.634378
11
20.914011
21
25.088157
0
LINE
8
Layer 1
10
20.914011
20
25.088157
11
22.902971
21
25.060109
0
LINE
8
Layer 1
10
22.902971
20
25.060109
11
25.142036
21
25.209640
0
LINE
8
Layer 1
10
25.142036
20
25.209640
11
26.972784
21
25.532594
0
LINE
8
Layer 1
10
26.972784
20
25.532594
11
26.880905
21
26.344004
0
LINE
8
Layer 1
10
26.880905
20
26.344004
11
26.492243
21
29.373120
0
LINE
8
Layer 1
10
26.492243
20
29.373120
11
26.422460
21
30.295556
0
LINE
8
Layer 1
10
26.422460
20
30.295556
11
26.447008
21
30.647126
0
LINE
8
Layer 1
10
26.447008
20
30.647126
11
26.771370
21
30.493687
0
LINE
8
Layer 1
10
26.771370
20
30.493687
11
27.396880
21
30.135923
0
LINE
8
Layer 1
10
27.396880
20
30.135923
11
27.944218
21
29.781704
0
LINE
8
Layer 1
10
27.944218
20
29.781704
11
28.035822
21
29.261901
0
LINE
8
Layer 1
10
28.035822
20
29.261901
11
28.212821
21
27.505765
0
LINE
8
Layer 1
10
28.212821
20
27.505765
11
28.514159
21
26.084941
0
LINE
8
Layer 1
10
28.514159
20
26.084941
11
28.675212
21
26.005239
0
LINE
8
Layer 1
10
28.675212
20
26.005239
11
29.505305
21
26.210112
0
LINE
8
Layer 1
10
29.505305
20
26.210112
11
32.559854
21
27.112022
0
LINE
8
Layer 1
10
32.559854
20
27.112022
11
34.082605
21
27.553463
0
LINE
8
Layer 1
10
34.082605
20
27.553463
11
35.583322
21
28.001807
0
LINE
8
Layer 1
10
35.583322
20
28.001807
11
36.365286
21
28.481759
0
LINE
8
Layer 1
10
36.365286
20
28.481759
11
36.704668
21
28.795969
0
LINE
8
Layer 1
10
36.704668
20
28.795969
11
37.482897
21
28.907845
0
LINE
8
Layer 1
10
37.482897
20
28.907845
11
38.989722
21
29.198493
0
LINE
8
Layer 1
10
38.989722
20
29.198493
11
40.384283
21
29.733547
0
LINE
8
Layer 1
10
40.384283
20
29.733547
11
41.787987
21
30.433301
0
LINE
8
Layer 1
10
41.787987
20
30.433301
11
42.994829
21
31.228490
0
LINE
8
Layer 1
10
42.994829
20
31.228490
11
44.140541
21
32.222331
0
LINE
8
Layer 1
10
44.140541
20
32.222331
11
45.360851
21
33.518041
0
LINE
8
Layer 1
10
45.360851
20
33.518041
11
46.529791
21
34.691784
0
LINE
8
Layer 1
10
46.529791
20
34.691784
11
48.656835
21
36.343213
0
LINE
8
Layer 1
10
48.656835
20
36.343213
11
49.699521
21
37.236528
0
LINE
8
Layer 1
10
49.699521
20
37.236528
11
50.485459
21
38.020290
0
LINE
8
Layer 1
10
50.485459
20
38.020290
11
51.224680
21
39.028424
0
LINE
8
Layer 1
10
51.224680
20
39.028424
11
51.978359
21
40.111920
0
LINE
8
Layer 1
10
51.978359
20
40.111920
11
53.827320
21
42.958919
0
LINE
8
Layer 1
10
53.827320
20
42.958919
11
55.063774
21
45.693630
0
LINE
8
Layer 1
10
55.063774
20
45.693630
11
55.566775
21
47.844251
0
LINE
8
Layer 1
10
55.566775
20
47.844251
11
55.668330
21
49.474397
0
LINE
8
Layer 1
10
55.668330
20
49.474397
11
55.379752
21
50.600279
0
LINE
8
Layer 1
10
55.379752
20
50.600279
11
54.842490
21
51.248604
0
LINE
8
Layer 1
10
54.842490
20
51.248604
11
53.900808
21
51.910255
0
LINE
8
Layer 1
10
53.900808
20
51.910255
11
52.638452
21
52.334565
0
LINE
8
Layer 1
10
52.638452
20
52.334565
11
51.013951
21
52.530445
0
LINE
8
Layer 1
10
51.013951
20
52.530445
11
48.985835
21
52.506803
0
LINE
8
Layer 1
10
48.985835
20
52.506803
11
45.943943
21
52.065584
0
LINE
8
Layer 1
10
45.943943
20
52.065584
11
44.942978
21
51.862990
0
LINE
8
Layer 1
10
44.942978
20
51.862990
11
44.794197
21
52.195435
0
LINE
8
Layer 1
10
44.794197
20
52.195435
11
44.579893
21
52.899581
0
LINE
8
Layer 1
10
44.579893
20
52.899581
11
44.439984
21
53.322095
0
LINE
8
Layer 1
10
44.439984
20
53.322095
11
45.333509
21
53.593964
0
LINE
8
Layer 1
10
45.333509
20
53.593964
11
47.461976
21
53.939117
0
LINE
8
Layer 1
10
47.461976
20
53.939117
11
50.753018
21
54.131226
0
LINE
8
Layer 1
10
50.753018
20
54.131226
11
53.395384
21
53.875422
0
LINE
8
Layer 1
10
53.395384
20
53.875422
11
54.803719
21
53.332124
0
LINE
8
Layer 1
10
54.803719
20
53.332124
11
55.998025
21
52.565857
0
LINE
8
Layer 1
10
55.998025
20
52.565857
11
56.744329
21
51.632421
0
LINE
8
Layer 1
10
56.744329
20
51.632421
11
57.251448
21
50.499377
0
LINE
8
Layer 1
10
57.251448
20
50.499377
11
57.349321
21
49.264761
0
LINE
8
Layer 1
10
57.349321
20
49.264761
11
57.244519
21
47.821842
0
LINE
8
Layer 1
10
57.244519
20
47.821842
11
56.879907
21
46.235165
0
LINE
8
Layer 1
10
56.879907
20
46.235165
11
56.352177
21
44.633366
0
LINE
8
Layer 1
10
56.352177
20
44.633366
11
54.858392
21
41.519175
0
LINE
8
Layer 1
10
54.858392
20
41.519175
11
52.760561
21
38.509630
0
LINE
8
Layer 1
10
52.760561
20
38.509630
11
50.385984
21
35.832587
0
LINE
8
Layer 1
10
50.385984
20
35.832587
11
48.217585
21
33.917249
0
LINE
8
Layer 1
10
48.217585
20
33.917249
11
45.259932
21
31.741950
0
LINE
8
Layer 1
10
45.259932
20
31.741950
11
44.117867
21
31.011401
0
LINE
8
Layer 1
10
44.117867
20
31.011401
11
42.800103
21
30.233393
0
LINE
8
Layer 1
10
42.800103
20
30.233393
11
41.394486
21
29.492217
0
LINE
8
Layer 1
10
41.394486
20
29.492217
11
38.729671
21
28.189358
0
LINE
8
Layer 1
10
38.729671
20
28.189358
11
36.884797
21
27.323117
0
LINE
8
Layer 1
10
36.884797
20
27.323117
11
35.127778
21
26.544304
0
LINE
8
Layer 1
10
35.127778
20
26.544304
11
33.985713
21
26.046414
0
LINE
8
Layer 1
10
33.985713
20
26.046414
11
31.028061
21
25.007479
0
LINE
8
Layer 1
10
31.028061
20
25.007479
11
29.798147
21
24.657189
0
LINE
8
Layer 1
10
29.798147
20
24.657189
11
29.109980
21
24.454390
0
LINE
8
Layer 1
10
29.109980
20
24.454390
11
28.861069
21
24.326707
0
LINE
8
Layer 1
10
28.861069
20
24.326707
11
29.610091
21
22.140050
0
LINE
8
Layer 1
10
29.610091
20
22.140050
11
30.819466
21
19.485736
0
LINE
8
Layer 1
10
30.819466
20
19.485736
11
32.246309
21
17.230839
0
LINE
8
Layer 1
10
32.246309
20
17.230839
11
33.043176
21
16.374707
0
LINE
8
Layer 1
10
33.043176
20
16.374707
11
33.906693
21
15.685890
0
LINE
8
Layer 1
10
33.906693
20
15.685890
11
34.495059
21
15.287877
0
LINE
8
Layer 1
10
34.495059
20
15.287877
11
34.244790
21
15.245153
0
LINE
8
Layer 1
10
34.244790
20
15.245153
11
33.450195
21
15.002190
0
LINE
8
Layer 1
10
33.450195
20
15.002190
11
32.658907
21
14.548782
0
LINE
8
Layer 1
10
32.658907
20
14.548782
11
32.462137
21
14.438440
0
LINE
8
Layer 1
10
32.462137
20
14.438440
11
32.067855
21
14.804487
0
LINE
8
Layer 1
10
32.067855
20
14.804487
11
32.067850
21
14.804487
0
LINE
8
Layer 1
10
51.587856
20
21.120530
11
50.970602
21
21.346199
0
LINE
8
Layer 1
10
50.970602
20
21.346199
11
50.413495
21
21.744437
0
LINE
8
Layer 1
10
50.413495
20
21.744437
11
49.968338
21
22.267622
0
LINE
8
Layer 1
10
49.968338
20
22.267622
11
49.686933
21
22.868130
0
LINE
8
Layer 1
10
49.686933
20
22.868130
11
49.623411
21
23.945985
0
LINE
8
Layer 1
10
49.623411
20
23.945985
11
49.950246
21
24.957519
0
LINE
8
Layer 1
10
49.950246
20
24.957519
11
50.650316
21
25.639306
0
LINE
8
Layer 1
10
50.650316
20
25.639306
11
51.594286
21
26.036196
0
LINE
8
Layer 1
10
51.594286
20
26.036196
11
52.299674
21
26.019568
0
LINE
8
Layer 1
10
52.299674
20
26.019568
11
53.106261
21
25.767274
0
LINE
8
Layer 1
10
53.106261
20
25.767274
11
53.767923
21
25.279524
0
LINE
8
Layer 1
10
53.767923
20
25.279524
11
54.264281
21
24.587067
0
LINE
8
Layer 1
10
54.264281
20
24.587067
11
54.455172
21
23.699476
0
LINE
8
Layer 1
10
54.455172
20
23.699476
11
54.337298
21
22.796822
0
LINE
8
Layer 1
10
54.337298
20
22.796822
11
54.046316
21
22.198399
0
LINE
8
Layer 1
10
54.046316
20
22.198399
11
53.649178
21
21.730680
0
LINE
8
Layer 1
10
53.649178
20
21.730680
11
53.134367
21
21.383372
0
LINE
8
Layer 1
10
53.134367
20
21.383372
11
52.490362
21
21.146179
0
LINE
8
Layer 1
10
52.490362
20
21.146179
11
51.587856
21
21.120530
0
LINE
8
Layer 1
10
51.587856
20
21.120530
11
51.587856
21
21.120530
0
LINE
8
Layer 1
10
54.954616
20
25.002125
11
54.486128
21
25.669521
0
LINE
8
Layer 1
10
54.486128
20
25.669521
11
54.225466
21
25.898964
0
LINE
8
Layer 1
10
54.225466
20
25.898964
11
54.706283
21
26.277289
0
LINE
8
Layer 1
10
54.706283
20
26.277289
11
55.576097
21
27.256757
0
LINE
8
Layer 1
10
55.576097
20
27.256757
11
55.920193
21
28.523893
0
LINE
8
Layer 1
10
55.920193
20
28.523893
11
55.839884
21
30.224971
0
LINE
8
Layer 1
10
55.839884
20
30.224971
11
55.352807
21
31.993143
0
LINE
8
Layer 1
10
55.352807
20
31.993143
11
55.162606
21
32.553657
0
LINE
8
Layer 1
10
55.162606
20
32.553657
11
55.626353
21
32.740082
0
LINE
8
Layer 1
10
55.626353
20
32.740082
11
56.229205
21
33.071530
0
LINE
8
Layer 1
10
56.229205
20
33.071530
11
56.392804
21
33.234631
0
LINE
8
Layer 1
10
56.392804
20
33.234631
11
56.564088
21
32.964544
0
LINE
8
Layer 1
10
56.564088
20
32.964544
11
56.955091
21
32.125377
0
LINE
8
Layer 1
10
56.955091
20
32.125377
11
57.290924
21
31.003800
0
LINE
8
Layer 1
10
57.290924
20
31.003800
11
57.616498
21
28.653200
0
LINE
8
Layer 1
10
57.616498
20
28.653200
11
57.451569
21
27.374264
0
LINE
8
Layer 1
10
57.451569
20
27.374264
11
56.898084
21
26.151915
0
LINE
8
Layer 1
10
56.898084
20
26.151915
11
56.327530
21
25.372186
0
LINE
8
Layer 1
10
56.327530
20
25.372186
11
55.714203
21
24.833635
0
LINE
8
Layer 1
10
55.714203
20
24.833635
11
55.229415
21
24.605959
0
LINE
8
Layer 1
10
55.229415
20
24.605959
11
54.954616
21
25.002125
0
LINE
8
Layer 1
10
54.954616
20
25.002125
11
54.954616
21
25.002125
0
LINE
8
Layer 1
10
14.775612
20
25.997173
11
14.223308
21
26.224761
0
LINE
8
Layer 1
10
14.223308
20
26.224761
11
13.803155
21
26.582275
0
LINE
8
Layer 1
10
13.803155
20
26.582275
11
13.527610
21
27.054849
0
LINE
8
Layer 1
10
13.527610
20
27.054849
11
13.409132
21
27.627620
0
LINE
8
Layer 1
10
13.409132
20
27.627620
11
13.473563
21
28.310340
0
LINE
8
Layer 1
10
13.473563
20
28.310340
11
13.749312
21
28.845348
0
LINE
8
Layer 1
10
13.749312
20
28.845348
11
14.229095
21
29.223839
0
LINE
8
Layer 1
10
14.229095
20
29.223839
11
14.905630
21
29.437008
0
LINE
8
Layer 1
10
14.905630
20
29.437008
11
15.673320
21
29.431090
0
LINE
8
Layer 1
10
15.673320
20
29.431090
11
16.344706
21
29.085192
0
LINE
8
Layer 1
10
16.344706
20
29.085192
11
16.877679
21
28.493213
0
LINE
8
Layer 1
10
16.877679
20
28.493213
11
17.030455
21
27.738044
0
LINE
8
Layer 1
10
17.030455
20
27.738044
11
16.878867
21
26.983496
0
LINE
8
Layer 1
10
16.878867
20
26.983496
11
16.504707
21
26.490090
0
LINE
8
Layer 1
10
16.504707
20
26.490090
11
15.981505
21
26.138754
0
LINE
8
Layer 1
10
15.981505
20
26.138754
11
15.381170
21
25.963208
0
LINE
8
Layer 1
10
15.381170
20
25.963208
11
14.775612
21
25.997173
0
LINE
8
Layer 1
10
14.775612
20
25.997173
11
14.775612
21
25.997173
0
LINE
8
Layer 1
10
32.785078
20
28.312780
11
30.520004
21
29.326810
0
LINE
8
Layer 1
10
30.520004
20
29.326810
11
27.671876
21
31.017561
0
LINE
8
Layer 1
10
27.671876
20
31.017561
11
23.014936
21
34.507980
0
LINE
8
Layer 1
10
23.014936
20
34.507980
11
20.279024
21
37.224269
0
LINE
8
Layer 1
10
20.279024
20
37.224269
11
17.880368
21
40.383787
0
LINE
8
Layer 1
10
17.880368
20
40.383787
11
16.629747
21
42.531276
0
LINE
8
Layer 1
10
16.629747
20
42.531276
11
15.661453
21
44.717267
0
LINE
8
Layer 1
10
15.661453
20
44.717267
11
15.009500
21
46.851072
0
LINE
8
Layer 1
10
15.009500
20
46.851072
11
14.707903
21
48.842004
0
LINE
8
Layer 1
10
14.707903
20
48.842004
11
14.690055
21
49.385617
0
LINE
8
Layer 1
10
14.690055
20
49.385617
11
14.780849
21
49.435753
0
LINE
8
Layer 1
10
14.780849
20
49.435753
11
15.901918
21
49.228154
0
LINE
8
Layer 1
10
15.901918
20
49.228154
11
16.322400
21
49.146602
0
LINE
8
Layer 1
10
16.322400
20
49.146602
11
16.416585
21
48.407515
0
LINE
8
Layer 1
10
16.416585
20
48.407515
11
16.935249
21
45.799059
0
LINE
8
Layer 1
10
16.935249
20
45.799059
11
18.183448
21
42.951002
0
LINE
8
Layer 1
10
18.183448
20
42.951002
11
19.889777
21
40.278737
0
LINE
8
Layer 1
10
19.889777
20
40.278737
11
20.708100
21
39.115114
0
LINE
8
Layer 1
10
20.708100
20
39.115114
11
21.742479
21
37.755872
0
LINE
8
Layer 1
10
21.742479
20
37.755872
11
23.181763
21
36.431198
0
LINE
8
Layer 1
10
23.181763
20
36.431198
11
25.475599
21
34.623190
0
LINE
8
Layer 1
10
25.475599
20
34.623190
11
26.384106
21
33.911085
0
LINE
8
Layer 1
10
26.384106
20
33.911085
11
26.966636
21
33.258402
0
LINE
8
Layer 1
10
26.966636
20
33.258402
11
28.085322
21
32.004842
0
LINE
8
Layer 1
10
28.085322
20
32.004842
11
29.372321
21
30.963371
0
LINE
8
Layer 1
10
29.372321
20
30.963371
11
32.170120
21
29.576392
0
LINE
8
Layer 1
10
32.170120
20
29.576392
11
34.659234
21
28.946432
0
LINE
8
Layer 1
10
34.659234
20
28.946432
11
35.274190
21
28.869603
0
LINE
8
Layer 1
10
35.274190
20
28.869603
11
35.084527
21
28.768806
0
LINE
8
Layer 1
10
35.084527
20
28.768806
11
33.312184
21
28.241766
0
LINE
8
Layer 1
10
33.312184
20
28.241766
11
32.785078
21
28.312780
0
LINE
8
Layer 1
10
32.785078
20
28.312780
11
32.785078
21
28.312780
0
LINE
8
Layer 1
10
15.917675
20
30.141583
11
15.551107
21
30.244975
0
LINE
8
Layer 1
10
15.551107
20
30.244975
11
15.024523
21
30.170554
0
LINE
8
Layer 1
10
15.024523
20
30.170554
11
14.687761
21
30.091306
0
LINE
8
Layer 1
10
14.687761
20
30.091306
11
14.689029
21
30.273961
0
LINE
8
Layer 1
10
14.689029
20
30.273961
11
15.043379
21
31.798611
0
LINE
8
Layer 1
10
15.043379
20
31.798611
11
15.609761
21
33.134385
0
LINE
8
Layer 1
10
15.609761
20
33.134385
11
15.841772
21
33.122498
0
LINE
8
Layer 1
10
15.841772
20
33.122498
11
16.478464
21
32.823573
0
LINE
8
Layer 1
10
16.478464
20
32.823573
11
16.971889
21
32.584217
0
LINE
8
Layer 1
10
16.971889
20
32.584217
11
16.854353
21
32.300701
0
LINE
8
Layer 1
10
16.854353
20
32.300701
11
16.237505
21
30.236990
0
LINE
8
Layer 1
10
16.237505
20
30.236990
11
16.165760
21
30.040285
0
LINE
8
Layer 1
10
16.165760
20
30.040285
11
15.917676
21
30.141583
0
LINE
8
Layer 1
10
15.917676
20
30.141583
11
15.917675
21
30.141583
0
LINE
8
Layer 1
10
34.512815
20
30.132308
11
32.976941
21
30.490404
0
LINE
8
Layer 1
10
32.976941
20
30.490404
11
31.623175
21
30.994958
0
LINE
8
Layer 1
10
31.623175
20
30.994958
11
30.367180
21
31.684563
0
LINE
8
Layer 1
10
30.367180
20
31.684563
11
29.124617
21
32.597809
0
LINE
8
Layer 1
10
29.124617
20
32.597809
11
27.789712
21
33.990549
0
LINE
8
Layer 1
10
27.789712
20
33.990549
11
26.820832
21
35.438763
0
LINE
8
Layer 1
10
26.820832
20
35.438763
11
26.227849
21
36.695523
0
LINE
8
Layer 1
10
26.227849
20
36.695523
11
26.135011
21
37.045451
0
LINE
8
Layer 1
10
26.135011
20
37.045451
11
25.767160
21
37.113928
0
LINE
8
Layer 1
10
25.767160
20
37.113928
11
24.481265
21
37.275442
0
LINE
8
Layer 1
10
24.481265
20
37.275442
11
23.294700
21
37.749840
0
LINE
8
Layer 1
10
23.294700
20
37.749840
11
22.633889
21
38.324373
0
LINE
8
Layer 1
10
22.633889
20
38.324373
11
22.036877
21
39.057960
0
LINE
8
Layer 1
10
22.036877
20
39.057960
11
21.621034
21
39.956824
0
LINE
8
Layer 1
10
21.621034
20
39.956824
11
21.455444
21
41.145166
0
LINE
8
Layer 1
10
21.455444
20
41.145166
11
21.555601
21
42.162553
0
LINE
8
Layer 1
10
21.555601
20
42.162553
11
21.908385
21
43.016737
0
LINE
8
Layer 1
10
21.908385
20
43.016737
11
22.796748
21
44.076183
0
LINE
8
Layer 1
10
22.796748
20
44.076183
11
24.029818
21
44.749412
0
LINE
8
Layer 1
10
24.029818
20
44.749412
11
24.549046
21
44.879720
0
LINE
8
Layer 1
10
24.549046
20
44.879720
11
25.317738
21
44.878179
0
LINE
8
Layer 1
10
25.317738
20
44.878179
11
26.393956
21
44.754381
0
LINE
8
Layer 1
10
26.393956
20
44.754381
11
26.666586
21
44.659209
0
LINE
8
Layer 1
10
26.666586
20
44.659209
11
26.843000
21
44.937403
0
LINE
8
Layer 1
10
26.843000
20
44.937403
11
28.003215
21
46.599174
0
LINE
8
Layer 1
10
28.003215
20
46.599174
11
29.358887
21
47.967636
0
LINE
8
Layer 1
10
29.358887
20
47.967636
11
30.413948
21
48.764247
0
LINE
8
Layer 1
10
30.413948
20
48.764247
11
31.379461
21
49.301281
0
LINE
8
Layer 1
10
31.379461
20
49.301281
11
33.250986
21
49.985844
0
LINE
8
Layer 1
10
33.250986
20
49.985844
11
34.217348
21
50.370730
0
LINE
8
Layer 1
10
34.217348
20
50.370730
11
36.389746
21
52.038904
0
LINE
8
Layer 1
10
36.389746
20
52.038904
11
37.833168
21
53.173778
0
LINE
8
Layer 1
10
37.833168
20
53.173778
11
37.796199
21
51.328743
0
LINE
8
Layer 1
10
37.796199
20
51.328743
11
37.533663
21
50.583679
0
LINE
8
Layer 1
10
37.533663
20
50.583679
11
37.353333
21
50.176354
0
LINE
8
Layer 1
10
37.353333
20
50.176354
11
37.514394
21
50.149618
0
LINE
8
Layer 1
10
37.514394
20
50.149618
11
39.519379
21
49.775656
0
LINE
8
Layer 1
10
39.519379
20
49.775656
11
41.613711
21
48.809583
0
LINE
8
Layer 1
10
41.613711
20
48.809583
11
42.612136
21
48.083108
0
LINE
8
Layer 1
10
42.612136
20
48.083108
11
43.607913
21
47.150482
0
LINE
8
Layer 1
10
43.607913
20
47.150482
11
44.506966
21
46.109679
0
LINE
8
Layer 1
10
44.506966
20
46.109679
11
45.215220
21
45.058678
0
LINE
8
Layer 1
10
45.215220
20
45.058678
11
45.470764
21
44.608921
0
LINE
8
Layer 1
10
45.470764
20
44.608921
11
45.731392
21
44.726038
0
LINE
8
Layer 1
10
45.731392
20
44.726038
11
46.863810
21
44.907969
0
LINE
8
Layer 1
10
46.863810
20
44.907969
11
48.087547
21
44.717583
0
LINE
8
Layer 1
10
48.087547
20
44.717583
11
49.032337
21
44.201489
0
LINE
8
Layer 1
10
49.032337
20
44.201489
11
49.848955
21
43.402510
0
LINE
8
Layer 1
10
49.848955
20
43.402510
11
50.423790
21
42.406709
0
LINE
8
Layer 1
10
50.423790
20
42.406709
11
50.589558
21
41.228317
0
LINE
8
Layer 1
10
50.589558
20
41.228317
11
50.496647
21
40.298190
0
LINE
8
Layer 1
10
50.496647
20
40.298190
11
50.179204
21
39.416948
0
LINE
8
Layer 1
10
50.179204
20
39.416948
11
49.785176
21
38.754946
0
LINE
8
Layer 1
10
49.785176
20
38.754946
11
49.286088
21
38.211787
0
LINE
8
Layer 1
10
49.286088
20
38.211787
11
47.924743
21
37.439916
0
LINE
8
Layer 1
10
47.924743
20
37.439916
11
46.152670
21
37.114012
0
LINE
8
Layer 1
10
46.152670
20
37.114012
11
45.962466
21
37.088482
0
LINE
8
Layer 1
10
45.962466
20
37.088482
11
45.865844
21
36.810425
0
LINE
8
Layer 1
10
45.865844
20
36.810425
11
45.022250
21
35.076952
0
LINE
8
Layer 1
10
45.022250
20
35.076952
11
43.679829
21
33.277251
0
LINE
8
Layer 1
10
43.679829
20
33.277251
11
42.379428
21
32.120931
0
LINE
8
Layer 1
10
42.379428
20
32.120931
11
40.908590
21
31.187695
0
LINE
8
Layer 1
10
40.908590
20
31.187695
11
39.322125
21
30.506486
0
LINE
8
Layer 1
10
39.322125
20
30.506486
11
37.674840
21
30.106248
0
LINE
8
Layer 1
10
37.674840
20
30.106248
11
36.071140
21
30.021848
0
LINE
8
Layer 1
10
36.071140
20
30.021848
11
34.512815
21
30.132319
0
LINE
8
Layer 1
10
34.512815
20
30.132319
11
34.512815
21
30.132308
0
LINE
8
Layer 1
10
37.284030
20
31.866337
11
38.424490
21
32.154422
0
LINE
8
Layer 1
10
38.424490
20
32.154422
11
39.608177
21
32.639110
0
LINE
8
Layer 1
10
39.608177
20
32.639110
11
40.558368
21
33.215383
0
LINE
8
Layer 1
10
40.558368
20
33.215383
11
41.398089
21
33.939894
0
LINE
8
Layer 1
10
41.398089
20
33.939894
11
42.139908
21
34.941665
0
LINE
8
Layer 1
10
42.139908
20
34.941665
11
42.545714
21
36.141465
0
LINE
8
Layer 1
10
42.545714
20
36.141465
11
42.566910
21
37.361217
0
LINE
8
Layer 1
10
42.566910
20
37.361217
11
42.428826
21
38.037007
0
LINE
8
Layer 1
10
42.428826
20
38.037007
11
42.197000
21
38.440330
0
LINE
8
Layer 1
10
42.197000
20
38.440330
11
42.068031
21
38.577611
0
LINE
8
Layer 1
10
42.068031
20
38.577611
11
42.243722
21
38.699734
0
LINE
8
Layer 1
10
42.243722
20
38.699734
11
42.812722
21
39.236148
0
LINE
8
Layer 1
10
42.812722
20
39.236148
11
43.254748
21
39.875122
0
LINE
8
Layer 1
10
43.254748
20
39.875122
11
43.531783
21
40.655516
0
LINE
8
Layer 1
10
43.531783
20
40.655516
11
43.619177
21
41.514560
0
LINE
8
Layer 1
10
43.619177
20
41.514560
11
43.542335
21
42.325186
0
LINE
8
Layer 1
10
43.542335
20
42.325186
11
43.198997
21
43.188575
0
LINE
8
Layer 1
10
43.198997
20
43.188575
11
42.399728
21
44.309011
0
LINE
8
Layer 1
10
42.399728
20
44.309011
11
41.818592
21
44.818005
0
LINE
8
Layer 1
10
41.818592
20
44.818005
11
41.236969
21
45.147765
0
LINE
8
Layer 1
10
41.236969
20
45.147765
11
40.591628
21
45.324384
0
LINE
8
Layer 1
10
40.591628
20
45.324384
11
39.819336
21
45.373959
0
LINE
8
Layer 1
10
39.819336
20
45.373959
11
38.849173
21
45.270474
0
LINE
8
Layer 1
10
38.849173
20
45.270474
11
37.921822
21
44.981722
0
LINE
8
Layer 1
10
37.921822
20
44.981722
11
37.071793
21
44.522229
0
LINE
8
Layer 1
10
37.071793
20
44.522229
11
36.333598
21
43.906520
0
LINE
8
Layer 1
10
36.333598
20
43.906520
11
36.045954
21
43.611072
0
LINE
8
Layer 1
10
36.045954
20
43.611072
11
35.625059
21
44.003363
0
LINE
8
Layer 1
10
35.625059
20
44.003363
11
34.271694
21
44.909223
0
LINE
8
Layer 1
10
34.271694
20
44.909223
11
32.781991
21
45.371737
0
LINE
8
Layer 1
10
32.781991
20
45.371737
11
31.783757
21
45.374460
0
LINE
8
Layer 1
10
31.783757
20
45.374460
11
30.880261
21
45.180770
0
LINE
8
Layer 1
10
30.880261
20
45.180770
11
29.804262
21
44.513597
0
LINE
8
Layer 1
10
29.804262
20
44.513597
11
28.989214
21
43.485141
0
LINE
8
Layer 1
10
28.989214
20
43.485141
11
28.510826
21
42.229121
0
LINE
8
Layer 1
10
28.510826
20
42.229121
11
28.444808
21
40.879254
0
LINE
8
Layer 1
10
28.444808
20
40.879254
11
28.795818
21
39.774026
0
LINE
8
Layer 1
10
28.795818
20
39.774026
11
29.602429
21
38.853369
0
LINE
8
Layer 1
10
29.602429
20
38.853369
11
29.895405
21
38.583806
0
LINE
8
Layer 1
10
29.895405
20
38.583806
11
29.892295
21
38.455101
0
LINE
8
Layer 1
10
29.892295
20
38.455101
11
29.579398
21
37.808814
0
LINE
8
Layer 1
10
29.579398
20
37.808814
11
29.457426
21
36.916159
0
LINE
8
Layer 1
10
29.457426
20
36.916159
11
29.530979
21
35.953441
0
LINE
8
Layer 1
10
29.530979
20
35.953441
11
29.804658
21
35.096965
0
LINE
8
Layer 1
10
29.804658
20
35.096965
11
30.585526
21
34.017507
0
LINE
8
Layer 1
10
30.585526
20
34.017507
11
31.643014
21
33.081182
0
LINE
8
Layer 1
10
31.643014
20
33.081182
11
33.113178
21
32.333642
0
LINE
8
Layer 1
10
33.113178
20
32.333642
11
34.735159
21
31.866970
0
LINE
8
Layer 1
10
34.735159
20
31.866970
11
35.978159
21
31.783717
0
LINE
8
Layer 1
10
35.978159
20
31.783717
11
37.284030
21
31.866306
0
LINE
8
Layer 1
10
37.284030
20
31.866306
11
37.284030
21
31.866337
0
LINE
8
Layer 1
10
35.508461
20
34.158055
11
34.088145
21
34.465901
0
LINE
8
Layer 1
10
34.088145
20
34.465901
11
32.862110
21
34.974769
0
LINE
8
Layer 1
10
32.862110
20
34.974769
11
31.970346
21
35.704169
0
LINE
8
Layer 1
10
31.970346
20
35.704169
11
31.344182
21
36.588743
0
LINE
8
Layer 1
10
31.344182
20
36.588743
11
31.211124
21
37.019214
0
LINE
8
Layer 1
10
31.211124
20
37.019214
11
31.394103
21
37.313060
0
LINE
8
Layer 1
10
31.394103
20
37.313060
11
32.158976
21
37.656580
0
LINE
8
Layer 1
10
32.158976
20
37.656580
11
32.377676
21
37.272849
0
LINE
8
Layer 1
10
32.377676
20
37.272849
11
32.774515
21
36.635529
0
LINE
8
Layer 1
10
32.774515
20
36.635529
11
33.447798
21
36.084932
0
LINE
8
Layer 1
10
33.447798
20
36.084932
11
34.358102
21
35.646265
0
LINE
8
Layer 1
10
34.358102
20
35.646265
11
35.333634
21
35.407536
0
LINE
8
Layer 1
10
35.333634
20
35.407536
11
36.335310
21
35.374125
0
LINE
8
Layer 1
10
36.335310
20
35.374125
11
37.324049
21
35.551411
0
LINE
8
Layer 1
10
37.324049
20
35.551411
11
38.836182
21
36.260180
0
LINE
8
Layer 1
10
38.836182
20
36.260180
11
39.345247
21
36.731306
0
LINE
8
Layer 1
10
39.345247
20
36.731306
11
39.670241
21
37.266077
0
LINE
8
Layer 1
10
39.670241
20
37.266077
11
39.926231
21
37.620474
0
LINE
8
Layer 1
10
39.926231
20
37.620474
11
40.776295
21
37.165953
0
LINE
8
Layer 1
10
40.776295
20
37.165953
11
40.928011
21
37.007597
0
LINE
8
Layer 1
10
40.928011
20
37.007597
11
40.824717
21
36.728897
0
LINE
8
Layer 1
10
40.824717
20
36.728897
11
40.402026
21
36.037669
0
LINE
8
Layer 1
10
40.402026
20
36.037669
11
39.735696
21
35.339842
0
LINE
8
Layer 1
10
39.735696
20
35.339842
11
38.874129
21
34.794047
0
LINE
8
Layer 1
10
38.874129
20
34.794047
11
37.809235
21
34.394696
0
LINE
8
Layer 1
10
37.809235
20
34.394696
11
36.650762
21
34.172471
0
LINE
8
Layer 1
10
36.650762
20
34.172471
11
35.508461
21
34.158055
0
LINE
8
Layer 1
10
35.508461
20
34.158055
11
35.508461
21
34.158055
0
LINE
8
Layer 1
10
35.603357
20
37.786550
11
35.280870
21
38.055460
0
LINE
8
Layer 1
10
35.280870
20
38.055460
11
35.097597
21
38.421488
0
LINE
8
Layer 1
10
35.097597
20
38.421488
11
35.073248
21
38.812745
0
LINE
8
Layer 1
10
35.073248
20
38.812745
11
35.227531
21
39.157345
0
LINE
8
Layer 1
10
35.227531
20
39.157345
11
35.581236
21
39.414876
0
LINE
8
Layer 1
10
35.581236
20
39.414876
11
36.019531
21
39.504459
0
LINE
8
Layer 1
10
36.019531
20
39.504459
11
36.469541
21
39.425244
0
LINE
8
Layer 1
10
36.469541
20
39.425244
11
36.858387
21
39.176382
0
LINE
8
Layer 1
10
36.858387
20
39.176382
11
37.086968
21
38.766576
0
LINE
8
Layer 1
10
37.086968
20
38.766576
11
36.998205
21
38.296961
0
LINE
8
Layer 1
10
36.998205
20
38.296961
11
36.743999
21
37.970933
0
LINE
8
Layer 1
10
36.743999
20
37.970933
11
36.386858
21
37.762577
0
LINE
8
Layer 1
10
36.386858
20
37.762577
11
35.986678
21
37.693812
0
LINE
8
Layer 1
10
35.986678
20
37.693812
11
35.603357
21
37.786554
0
LINE
8
Layer 1
10
35.603357
20
37.786554
11
35.603357
21
37.786550
0
LINE
8
Layer 1
10
30.771802
20
40.309632
11
30.427697
21
40.331502
0
LINE
8
Layer 1
10
30.427697
20
40.331502
11
30.453858
21
40.783416
0
LINE
8
Layer 1
10
30.453858
20
40.783416
11
30.794532
21
41.863084
0
LINE
8
Layer 1
10
30.794532
20
41.863084
11
31.146260
21
42.282279
0
LINE
8
Layer 1
10
31.146260
20
42.282279
11
31.599103
21
42.589797
0
LINE
8
Layer 1
10
31.599103
20
42.589797
11
32.402928
21
42.781297
0
LINE
8
Layer 1
10
32.402928
20
42.781297
11
33.223902
21
42.664067
0
LINE
8
Layer 1
10
33.223902
20
42.664067
11
33.732895
21
42.368990
0
LINE
8
Layer 1
10
33.732895
20
42.368990
11
34.154379
21
41.925099
0
LINE
8
Layer 1
10
34.154379
20
41.925099
11
34.451419
21
41.383069
0
LINE
8
Layer 1
10
34.451419
20
41.383069
11
34.587085
21
40.793578
0
LINE
8
Layer 1
10
34.587085
20
40.793578
11
34.615125
21
40.401688
0
LINE
8
Layer 1
10
34.615125
20
40.401688
11
34.336168
21
40.363453
0
LINE
8
Layer 1
10
34.336168
20
40.363453
11
33.831673
21
40.331440
0
LINE
8
Layer 1
10
33.831673
20
40.331440
11
33.685677
21
40.486279
0
LINE
8
Layer 1
10
33.685677
20
40.486279
11
33.452244
21
41.003979
0
LINE
8
Layer 1
10
33.452244
20
41.003979
11
33.074790
21
41.347679
0
LINE
8
Layer 1
10
33.074790
20
41.347679
11
32.609248
21
41.485433
0
LINE
8
Layer 1
10
32.609248
20
41.485433
11
32.111553
21
41.385296
0
LINE
8
Layer 1
10
32.111553
20
41.385296
11
31.677772
21
41.059530
0
LINE
8
Layer 1
10
31.677772
20
41.059530
11
31.383608
21
40.584015
0
LINE
8
Layer 1
10
31.383608
20
40.584015
11
31.195172
21
40.291844
0
LINE
8
Layer 1
10
31.195172
20
40.291844
11
30.771802
21
40.309619
0
LINE
8
Layer 1
10
30.771802
20
40.309619
11
30.771802
21
40.309632
0
LINE
8
Layer 1
10
37.652747
20
40.367612
11
37.536333
21
40.447583
0
LINE
8
Layer 1
10
37.536333
20
40.447583
11
37.545083
21
40.813534
0
LINE
8
Layer 1
10
37.545083
20
40.813534
11
37.857644
21
41.865978
0
LINE
8
Layer 1
10
37.857644
20
41.865978
11
38.531471
21
42.552079
0
LINE
8
Layer 1
10
38.531471
20
42.552079
11
39.449866
21
42.803149
0
LINE
8
Layer 1
10
39.449866
20
42.803149
11
40.496133
21
42.550502
0
LINE
8
Layer 1
10
40.496133
20
42.550502
11
41.247110
21
41.905550
0
LINE
8
Layer 1
10
41.247110
20
41.905550
11
41.638589
21
40.925715
0
LINE
8
Layer 1
10
41.638589
20
40.925715
11
41.638207
21
40.444359
0
LINE
8
Layer 1
10
41.638207
20
40.444359
11
41.172845
21
40.335883
0
LINE
8
Layer 1
10
41.172845
20
40.335883
11
40.777655
21
40.313555
0
LINE
8
Layer 1
10
40.777655
20
40.313555
11
40.705764
21
40.582348
0
LINE
8
Layer 1
10
40.705764
20
40.582348
11
40.421848
21
41.078630
0
LINE
8
Layer 1
10
40.421848
20
41.078630
11
39.958315
21
41.412315
0
LINE
8
Layer 1
10
39.958315
20
41.412315
11
39.556339
21
41.479279
0
LINE
8
Layer 1
10
39.556339
20
41.479279
11
39.164855
21
41.388542
0
LINE
8
Layer 1
10
39.164855
20
41.388542
11
38.819329
21
41.155678
0
LINE
8
Layer 1
10
38.819329
20
41.155678
11
38.555228
21
40.796257
0
LINE
8
Layer 1
10
38.555228
20
40.796257
11
38.407545
21
40.415020
0
LINE
8
Layer 1
10
38.407545
20
40.415020
11
38.100067
21
40.333198
0
LINE
8
Layer 1
10
38.100067
20
40.333198
11
37.652747
21
40.367612
0
LINE
8
Layer 1
10
37.652747
20
40.367612
11
37.652747
21
40.367612
0
LINE
8
Layer 1
10
25.533957
20
40.061666
11
25.590528
21
41.572006
0
LINE
8
Layer 1
10
25.590528
20
41.572006
11
25.822795
21
42.697202
0
LINE
8
Layer 1
10
25.822795
20
42.697202
11
25.932666
21
43.012510
0
LINE
8
Layer 1
10
25.932666
20
43.012510
11
25.361664
21
43.005470
0
LINE
8
Layer 1
10
25.361664
20
43.005470
11
24.530844
21
42.869690
0
LINE
8
Layer 1
10
24.530844
20
42.869690
11
23.912859
21
42.525227
0
LINE
8
Layer 1
10
23.912859
20
42.525227
11
23.499836
21
41.989401
0
LINE
8
Layer 1
10
23.499836
20
41.989401
11
23.313991
21
41.311506
0
LINE
8
Layer 1
10
23.313991
20
41.311506
11
23.365781
21
40.599928
0
LINE
8
Layer 1
10
23.365781
20
40.599928
11
23.665663
21
39.963056
0
LINE
8
Layer 1
10
23.665663
20
39.963056
11
24.428048
21
39.363153
0
LINE
8
Layer 1
10
24.428048
20
39.363153
11
25.351219
21
39.098586
0
LINE
8
Layer 1
10
25.351219
20
39.098586
11
25.560402
21
39.095287
0
LINE
8
Layer 1
10
25.560402
20
39.095287
11
25.533957
21
40.061666
0
LINE
8
Layer 1
10
47.016949
20
39.216339
11
47.824761
21
39.557843
0
LINE
8
Layer 1
10
47.824761
20
39.557843
11
48.398130
21
40.140049
0
LINE
8
Layer 1
10
48.398130
20
40.140049
11
48.684224
21
40.881584
0
LINE
8
Layer 1
10
48.684224
20
40.881584
11
48.630210
21
41.701076
0
LINE
8
Layer 1
10
48.630210
20
41.701076
11
48.169126
21
42.404800
0
LINE
8
Layer 1
10
48.169126
20
42.404800
11
47.509479
21
42.873399
0
LINE
8
Layer 1
10
47.509479
20
42.873399
11
46.641643
21
43.056491
0
LINE
8
Layer 1
10
46.641643
20
43.056491
11
46.152433
21
43.094093
0
LINE
8
Layer 1
10
46.152433
20
43.094093
11
46.286398
21
42.592420
0
LINE
8
Layer 1
10
46.286398
20
42.592420
11
46.496943
21
41.358041
0
LINE
8
Layer 1
10
46.496943
20
41.358041
11
46.533837
21
39.944825
0
LINE
8
Layer 1
10
46.533837
20
39.944825
11
46.598702
21
39.128531
0
LINE
8
Layer 1
10
46.598702
20
39.128531
11
47.016949
21
39.216339
0
LINE
8
Layer 1
10
47.016949
20
39.216339
11
47.016949
21
39.216339
0
LINE
8
Layer 1
10
24.556363
20
30.421365
11
23.004327
21
30.852564
0
LINE
8
Layer 1
10
23.004327
20
30.852564
11
21.481576
21
31.305276
0
LINE
8
Layer 1
10
21.481576
20
31.305276
11
18.957349
21
32.136733
0
LINE
8
Layer 1
10
18.957349
20
32.136733
11
16.561917
21
33.196546
0
LINE
8
Layer 1
10
16.561917
20
33.196546
11
14.141139
21
34.505964
0
LINE
8
Layer 1
10
14.141139
20
34.505964
11
12.276090
21
35.779057
0
LINE
8
Layer 1
10
12.276090
20
35.779057
11
10.970964
21
37.012507
0
LINE
8
Layer 1
10
10.970964
20
37.012507
11
10.229956
21
38.202997
0
LINE
8
Layer 1
10
10.229956
20
38.202997
11
10.088066
21
39.182905
0
LINE
8
Layer 1
10
10.088066
20
39.182905
11
10.230244
21
40.205087
0
LINE
8
Layer 1
10
10.230244
20
40.205087
11
10.640371
21
40.977556
0
LINE
8
Layer 1
10
10.640371
20
40.977556
11
11.286378
21
41.805279
0
LINE
8
Layer 1
10
11.286378
20
41.805279
11
13.349688
21
43.438883
0
LINE
8
Layer 1
10
13.349688
20
43.438883
11
15.063250
21
44.307800
0
LINE
8
Layer 1
10
15.063250
20
44.307800
11
15.157955
21
44.029605
0
LINE
8
Layer 1
10
15.157955
20
44.029605
11
15.373393
21
43.469556
0
LINE
8
Layer 1
10
15.373393
20
43.469556
11
15.571119
21
42.947058
0
LINE
8
Layer 1
10
15.571119
20
42.947058
11
15.163548
21
42.671560
0
LINE
8
Layer 1
10
15.163548
20
42.671560
11
13.652731
21
41.718355
0
LINE
8
Layer 1
10
13.652731
20
41.718355
11
12.438821
21
40.618881
0
LINE
8
Layer 1
10
12.438821
20
40.618881
11
11.987793
21
39.921934
0
LINE
8
Layer 1
10
11.987793
20
39.921934
11
11.856048
21
39.176081
0
LINE
8
Layer 1
10
11.856048
20
39.176081
11
12.042864
21
38.314778
0
LINE
8
Layer 1
10
12.042864
20
38.314778
11
12.572298
21
37.596512
0
LINE
8
Layer 1
10
12.572298
20
37.596512
11
13.458609
21
36.794398
0
LINE
8
Layer 1
10
13.458609
20
36.794398
11
15.946953
21
35.219964
0
LINE
8
Layer 1
10
15.946953
20
35.219964
11
16.737661
21
34.787280
0
LINE
8
Layer 1
10
16.737661
20
34.787280
11
17.969546
21
34.146099
0
LINE
8
Layer 1
10
17.969546
20
34.146099
11
19.021740
21
33.762804
0
LINE
8
Layer 1
10
19.021740
20
33.762804
11
21.452285
21
32.918548
0
LINE
8
Layer 1
10
21.452285
20
32.918548
11
24.270654
21
31.916149
0
LINE
8
Layer 1
10
24.270654
20
31.916149
11
24.995611
21
31.542978
0
LINE
8
Layer 1
10
24.995611
20
31.542978
11
25.559847
21
31.249836
0
LINE
8
Layer 1
10
25.559847
20
31.249836
11
25.652265
21
31.059431
0
LINE
8
Layer 1
10
25.652265
20
31.059431
11
25.601516
21
30.559109
0
LINE
8
Layer 1
10
25.601516
20
30.559109
11
25.501253
21
30.196194
0
LINE
8
Layer 1
10
25.501253
20
30.196194
11
24.556356
21
30.421365
0
LINE
8
Layer 1
10
24.556356
20
30.421365
11
24.556363
21
30.421365
0
LINE
8
Layer 1
10
46.508450
20
30.542673
11
46.427803
21
31.052814
0
LINE
8
Layer 1
10
46.427803
20
31.052814
11
46.390080
21
31.249442
0
LINE
8
Layer 1
10
46.390080
20
31.249442
11
46.497046
21
31.377018
0
LINE
8
Layer 1
10
46.497046
20
31.377018
11
48.510416
21
32.266495
0
LINE
8
Layer 1
10
48.510416
20
32.266495
11
52.503338
21
33.535485
0
LINE
8
Layer 1
10
52.503338
20
33.535485
11
54.624493
21
34.573276
0
LINE
8
Layer 1
10
54.624493
20
34.573276
11
55.352869
21
34.972212
0
LINE
8
Layer 1
10
55.352869
20
34.972212
11
57.471224
21
35.989788
0
LINE
8
Layer 1
10
57.471224
20
35.989788
11
59.409647
21
37.479616
0
LINE
8
Layer 1
10
59.409647
20
37.479616
11
59.961808
21
38.151592
0
LINE
8
Layer 1
10
59.961808
20
38.151592
11
60.242646
21
38.801199
0
LINE
8
Layer 1
10
60.242646
20
38.801199
11
60.255377
21
39.442569
0
LINE
8
Layer 1
10
60.255377
20
39.442569
11
60.003214
21
40.089833
0
LINE
8
Layer 1
10
60.003214
20
40.089833
11
59.189174
21
41.034263
0
LINE
8
Layer 1
10
59.189174
20
41.034263
11
58.144749
21
41.944243
0
LINE
8
Layer 1
10
58.144749
20
41.944243
11
57.149103
21
42.549426
0
LINE
8
Layer 1
10
57.149103
20
42.549426
11
56.544400
21
42.900884
0
LINE
8
Layer 1
10
56.544400
20
42.900884
11
56.727117
21
43.495174
0
LINE
8
Layer 1
10
56.727117
20
43.495174
11
56.996238
21
44.205555
0
LINE
8
Layer 1
10
56.996238
20
44.205555
11
57.034325
21
44.366862
0
LINE
8
Layer 1
10
57.034325
20
44.366862
11
57.397284
21
44.183643
0
LINE
8
Layer 1
10
57.397284
20
44.183643
11
59.069769
21
43.225360
0
LINE
8
Layer 1
10
59.069769
20
43.225360
11
60.391910
21
42.222215
0
LINE
8
Layer 1
10
60.391910
20
42.222215
11
61.339370
21
41.195970
0
LINE
8
Layer 1
10
61.339370
20
41.195970
11
61.887812
21
40.168386
0
LINE
8
Layer 1
10
61.887812
20
40.168386
11
62.041753
21
39.399521
0
LINE
8
Layer 1
10
62.041753
20
39.399521
11
62.017961
21
38.656049
0
LINE
8
Layer 1
10
62.017961
20
38.656049
11
61.671035
21
37.749963
0
LINE
8
Layer 1
10
61.671035
20
37.749963
11
61.088859
21
36.874377
0
LINE
8
Layer 1
10
61.088859
20
36.874377
11
60.180458
21
36.024746
0
LINE
8
Layer 1
10
60.180458
20
36.024746
11
58.969984
21
35.126082
0
LINE
8
Layer 1
10
58.969984
20
35.126082
11
56.270920
21
33.607542
0
LINE
8
Layer 1
10
56.270920
20
33.607542
11
54.982436
21
32.983114
0
LINE
8
Layer 1
10
54.982436
20
32.983114
11
53.133602
21
32.143227
0
LINE
8
Layer 1
10
53.133602
20
32.143227
11
50.589558
21
31.291849
0
LINE
8
Layer 1
10
50.589558
20
31.291849
11
46.636262
21
30.270913
0
LINE
8
Layer 1
10
46.636262
20
30.270913
11
46.536820
21
30.298483
0
LINE
8
Layer 1
10
46.536820
20
30.298483
11
46.508450
21
30.542673
0
LINE
8
Layer 1
10
46.508450
20
30.542673
11
46.508450
21
30.542673
0
LINE
8
Layer 1
10
53.827748
20
34.662999
11
53.181976
21
35.464127
0
LINE
8
Layer 1
10
53.181976
20
35.464127
11
52.528196
21
36.251102
0
LINE
8
Layer 1
10
52.528196
20
36.251102
11
52.346579
21
36.473916
0
LINE
8
Layer 1
10
52.346579
20
36.473916
11
52.683343
21
36.918910
0
LINE
8
Layer 1
10
52.683343
20
36.918910
11
53.166678
21
37.506509
0
LINE
8
Layer 1
10
53.166678
20
37.506509
11
53.313254
21
37.699908
0
LINE
8
Layer 1
10
53.313254
20
37.699908
11
53.826123
21
37.119763
0
LINE
8
Layer 1
10
53.826123
20
37.119763
11
55.045269
21
35.451156
0
LINE
8
Layer 1
10
55.045269
20
35.451156
11
55.216380
21
35.086824
0
LINE
8
Layer 1
10
55.216380
20
35.086824
11
54.879618
21
34.907975
0
LINE
8
Layer 1
10
54.879618
20
34.907975
11
54.272104
21
34.617594
0
LINE
8
Layer 1
10
54.272104
20
34.617594
11
54.001353
21
34.476829
0
LINE
8
Layer 1
10
54.001353
20
34.476829
11
53.827748
21
34.662999
0
LINE
8
Layer 1
10
17.645413
20
34.702205
11
17.045455
21
34.944715
0
LINE
8
Layer 1
10
17.045455
20
34.944715
11
16.738333
21
35.014067
0
LINE
8
Layer 1
10
16.738333
20
35.014067
11
17.019968
21
35.549038
0
LINE
8
Layer 1
10
17.019968
20
35.549038
11
18.225199
21
37.243707
0
LINE
8
Layer 1
10
18.225199
20
37.243707
11
18.638459
21
37.705520
0
LINE
8
Layer 1
10
18.638459
20
37.705520
11
18.756893
21
37.544168
0
LINE
8
Layer 1
10
18.756893
20
37.544168
11
19.242154
21
36.939204
0
LINE
8
Layer 1
10
19.242154
20
36.939204
11
19.608982
21
36.495593
0
LINE
8
Layer 1
10
19.608982
20
36.495593
11
19.411260
21
36.287339
0
LINE
8
Layer 1
10
19.411260
20
36.287339
11
18.376814
21
34.922378
0
LINE
8
Layer 1
10
18.376814
20
34.922378
11
18.028321
21
34.528048
0
LINE
8
Layer 1
10
18.028321
20
34.528048
11
17.645413
21
34.702205
0
LINE
8
Layer 1
10
17.645413
20
34.702205
11
17.645413
21
34.702205
0
LINE
8
Layer 1
10
18.087354
20
44.705257
11
17.818567
21
45.425606
0
LINE
8
Layer 1
10
17.818567
20
45.425606
11
17.679140
21
45.700754
0
LINE
8
Layer 1
10
17.679140
20
45.700754
11
18.247950
21
45.936401
0
LINE
8
Layer 1
10
18.247950
20
45.936401
11
22.098347
21
47.330358
0
LINE
8
Layer 1
10
22.098347
20
47.330358
11
25.716128
21
48.363710
0
LINE
8
Layer 1
10
25.716128
20
48.363710
11
26.114517
21
48.451569
0
LINE
8
Layer 1
10
26.114517
20
48.451569
11
26.084497
21
48.297765
0
LINE
8
Layer 1
10
26.084497
20
48.297765
11
25.926799
21
47.455840
0
LINE
8
Layer 1
10
25.926799
20
47.455840
11
25.799121
21
46.767717
0
LINE
8
Layer 1
10
25.799121
20
46.767717
11
25.558430
21
46.707336
0
LINE
8
Layer 1
10
25.558430
20
46.707336
11
20.285866
21
45.030283
0
LINE
8
Layer 1
10
20.285866
20
45.030283
11
18.668076
21
44.453249
0
LINE
8
Layer 1
10
18.668076
20
44.453249
11
18.216712
21
44.260055
0
LINE
8
Layer 1
10
18.216712
20
44.260055
11
18.087354
21
44.705257
0
LINE
8
Layer 1
10
52.697984
20
44.663098
11
51.087381
21
45.250717
0
LINE
8
Layer 1
10
51.087381
20
45.250717
11
48.978956
21
45.917781
0
LINE
8
Layer 1
10
48.978956
20
45.917781
11
46.987666
21
46.536436
0
LINE
8
Layer 1
10
46.987666
20
46.536436
11
46.323134
21
46.741952
0
LINE
8
Layer 1
10
46.323134
20
46.741952
11
46.245310
21
47.235331
0
LINE
8
Layer 1
10
46.245310
20
47.235331
11
46.083119
21
48.088672
0
LINE
8
Layer 1
10
46.083119
20
48.088672
11
46.014527
21
48.465259
0
LINE
8
Layer 1
10
46.014527
20
48.465259
11
48.651938
21
47.713174
0
LINE
8
Layer 1
10
48.651938
20
47.713174
11
52.346579
21
46.434392
0
LINE
8
Layer 1
10
52.346579
20
46.434392
11
54.220165
21
45.602773
0
LINE
8
Layer 1
10
54.220165
20
45.602773
11
54.027684
21
44.952040
0
LINE
8
Layer 1
10
54.027684
20
44.952040
11
53.843562
21
44.435559
0
LINE
8
Layer 1
10
53.843562
20
44.435559
11
53.691494
21
44.324517
0
LINE
8
Layer 1
10
53.691494
20
44.324517
11
52.697984
21
44.663098
0
LINE
8
Layer 1
10
52.697984
20
44.663098
11
52.697984
21
44.663098
0
LINE
8
Layer 1
10
45.054942
20
47.132553
11
43.797506
21
48.473277
0
LINE
8
Layer 1
10
43.797506
20
48.473277
11
43.504416
21
48.855001
0
LINE
8
Layer 1
10
43.504416
20
48.855001
11
42.964632
21
50.906362
0
LINE
8
Layer 1
10
42.964632
20
50.906362
11
41.965925
21
53.413117
0
LINE
8
Layer 1
10
41.965925
20
53.413117
11
40.659660
21
55.640585
0
LINE
8
Layer 1
10
40.659660
20
55.640585
11
39.794016
21
56.829465
0
LINE
8
Layer 1
10
39.794016
20
56.829465
11
38.898980
21
57.815445
0
LINE
8
Layer 1
10
38.898980
20
57.815445
11
38.018224
21
58.556065
0
LINE
8
Layer 1
10
38.018224
20
58.556065
11
37.195416
21
59.008865
0
LINE
8
Layer 1
10
37.195416
20
59.008865
11
36.456949
21
59.170444
0
LINE
8
Layer 1
10
36.456949
20
59.170444
11
35.596311
21
59.170656
0
LINE
8
Layer 1
10
35.596311
20
59.170656
11
34.930445
21
58.997912
0
LINE
8
Layer 1
10
34.930445
20
58.997912
11
34.200360
21
58.624285
0
LINE
8
Layer 1
10
34.200360
20
58.624285
11
32.778372
21
57.417955
0
LINE
8
Layer 1
10
32.778372
20
57.417955
11
31.575309
21
55.879463
0
LINE
8
Layer 1
10
31.575309
20
55.879463
11
30.520781
21
54.148732
0
LINE
8
Layer 1
10
30.520781
20
54.148732
11
29.639284
21
52.271414
0
LINE
8
Layer 1
10
29.639284
20
52.271414
11
28.955312
21
50.293158
0
LINE
8
Layer 1
10
28.955312
20
50.293158
11
28.602287
21
48.926713
0
LINE
8
Layer 1
10
28.602287
20
48.926713
11
28.517474
21
48.663970
0
LINE
8
Layer 1
10
28.517474
20
48.663970
11
28.218019
21
48.442273
0
LINE
8
Layer 1
10
28.218019
20
48.442273
11
27.581269
21
47.903436
0
LINE
8
Layer 1
10
27.581269
20
47.903436
11
26.971401
21
47.148317
0
LINE
8
Layer 1
10
26.971401
20
47.148317
11
26.775951
21
46.943331
0
LINE
8
Layer 1
10
26.775951
20
46.943331
11
26.900815
21
47.733991
0
LINE
8
Layer 1
10
26.900815
20
47.733991
11
27.472724
21
50.535605
0
LINE
8
Layer 1
10
27.472724
20
50.535605
11
28.403972
21
53.274928
0
LINE
8
Layer 1
10
28.403972
20
53.274928
11
29.637733
21
55.813426
0
LINE
8
Layer 1
10
29.637733
20
55.813426
11
31.117179
21
58.012564
0
LINE
8
Layer 1
10
31.117179
20
58.012564
11
32.072613
21
59.066257
0
LINE
8
Layer 1
10
32.072613
20
59.066257
11
33.076550
21
59.905118
0
LINE
8
Layer 1
10
33.076550
20
59.905118
11
34.099725
21
60.508328
0
LINE
8
Layer 1
10
34.099725
20
60.508328
11
35.112877
21
60.855070
0
LINE
8
Layer 1
10
35.112877
20
60.855070
11
36.436224
21
60.916845
0
LINE
8
Layer 1
10
36.436224
20
60.916845
11
37.732559
21
60.636768
0
LINE
8
Layer 1
10
37.732559
20
60.636768
11
38.639822
21
60.150639
0
LINE
8
Layer 1
10
38.639822
20
60.150639
11
39.531955
21
59.495489
0
LINE
8
Layer 1
10
39.531955
20
59.495489
11
41.203110
21
57.630424
0
LINE
8
Layer 1
10
41.203110
20
57.630424
11
42.714010
21
55.347749
0
LINE
8
Layer 1
10
42.714010
20
55.347749
11
43.595516
21
53.456790
0
LINE
8
Layer 1
10
43.595516
20
53.456790
11
44.379016
21
51.365929
0
LINE
8
Layer 1
10
44.379016
20
51.365929
11
45.072831
21
48.581419
0
LINE
8
Layer 1
10
45.072831
20
48.581419
11
45.381730
21
46.711599
0
LINE
8
Layer 1
10
45.381730
20
46.711599
11
45.054942
21
47.132553
0
LINE
8
Layer 1
10
45.054942
20
47.132553
11
45.054942
21
47.132553
0
LINE
8
Layer 1
10
15.302718
20
50.126960
11
14.308891
21
50.694332
0
LINE
8
Layer 1
10
14.308891
20
50.694332
11
13.752035
21
51.550279
0
LINE
8
Layer 1
10
13.752035
20
51.550279
11
13.632252
21
52.261693
0
LINE
8
Layer 1
10
13.632252
20
52.261693
11
13.693322
21
52.962363
0
LINE
8
Layer 1
10
13.693322
20
52.962363
11
13.921367
21
53.588591
0
LINE
8
Layer 1
10
13.921367
20
53.588591
11
14.302507
21
54.076685
0
LINE
8
Layer 1
10
14.302507
20
54.076685
11
15.327876
21
54.637235
0
LINE
8
Layer 1
10
15.327876
20
54.637235
11
16.409966
21
54.684274
0
LINE
8
Layer 1
10
16.409966
20
54.684274
11
17.385463
21
54.248645
0
LINE
8
Layer 1
10
17.385463
20
54.248645
11
18.091051
21
53.361190
0
LINE
8
Layer 1
10
18.091051
20
53.361190
11
18.304489
21
52.436076
0
LINE
8
Layer 1
10
18.304489
20
52.436076
11
18.149143
21
51.516582
0
LINE
8
Layer 1
10
18.149143
20
51.516582
11
17.673270
21
50.732920
0
LINE
8
Layer 1
10
17.673270
20
50.732920
11
16.925130
21
50.215303
0
LINE
8
Layer 1
10
16.925130
20
50.215303
11
16.095993
21
50.066580
0
LINE
8
Layer 1
10
16.095993
20
50.066580
11
15.302718
21
50.126960
0
LINE
8
Layer 1
10
15.302718
20
50.126960
11
15.302718
21
50.126960
0
LINE
8
Layer 1
10
39.871729
20
50.857517
11
39.256773
21
51.009854
0
LINE
8
Layer 1
10
39.256773
20
51.009854
11
39.256773
21
51.579607
0
LINE
8
Layer 1
10
39.256773
20
51.579607
11
39.256773
21
52.149361
0
LINE
8
Layer 1
10
39.256773
20
52.149361
11
40.106000
21
52.355428
0
LINE
8
Layer 1
10
40.106000
20
52.355428
11
41.649626
21
52.677692
0
LINE
8
Layer 1
10
41.649626
20
52.677692
11
42.155856
21
51.135453
0
LINE
8
Layer 1
10
42.155856
20
51.135453
11
42.024080
21
51.100597
0
LINE
8
Layer 1
10
42.024080
20
51.100597
11
40.913672
21
50.808851
0
LINE
8
Layer 1
10
40.913672
20
50.808851
11
40.606567
21
50.707637
0
LINE
8
Layer 1
10
40.606567
20
50.707637
11
39.871729
21
50.857517
0
LINE
8
Layer 1
10
39.871729
20
50.857517
11
39.871729
21
50.857517
0
LINE
8
Layer 1
10
31.496596
20
50.863109
11
30.676653
21
51.104720
0
LINE
8
Layer 1
10
30.676653
20
51.104720
11
29.920904
21
51.314975
0
LINE
8
Layer 1
10
29.920904
20
51.314975
11
30.074753
21
51.730466
0
LINE
8
Layer 1
10
30.074753
20
51.730466
11
30.325648
21
52.404738
0
LINE
8
Layer 1
10
30.325648
20
52.404738
11
30.464637
21
52.682854
0
LINE
8
Layer 1
10
30.464637
20
52.682854
11
33.502528
21
51.913751
0
LINE
8
Layer 1
10
33.502528
20
51.913751
11
33.663589
21
51.792962
0
LINE
8
Layer 1
10
33.663589
20
51.792962
11
33.385393
21
51.453559
0
LINE
8
Layer 1
10
33.385393
20
51.453559
11
33.054858
21
51.186996
0
LINE
8
Layer 1
10
33.054858
20
51.186996
11
32.512371
21
50.989374
0
LINE
8
Layer 1
10
32.512371
20
50.989374
11
31.834647
21
50.823339
0
LINE
8
Layer 1
10
31.834647
20
50.823339
11
31.496596
21
50.863109
0
LINE
8
Layer 1
10
31.496596
20
50.863109
11
31.496596
21
50.863109
0
LINE
8
Layer 1
10
26.079114
20
52.069831
11
24.164671
21
52.376507
0
LINE
8
Layer 1
10
24.164671
20
52.376507
11
22.184384
21
52.490947
0
LINE
8
Layer 1
10
22.184384
20
52.490947
11
19.372384
21
52.353897
0
LINE
8
Layer 1
10
19.372384
20
52.353897
11
19.154652
21
52.319080
0
LINE
8
Layer 1
10
19.154652
20
52.319080
11
19.127640
21
52.785683
0
LINE
8
Layer 1
10
19.127640
20
52.785683
11
18.975021
21
53.506162
0
LINE
8
Layer 1
10
18.975021
20
53.506162
11
18.866438
21
53.777063
0
LINE
8
Layer 1
10
18.866438
20
53.777063
11
19.582204
21
53.914361
0
LINE
8
Layer 1
10
19.582204
20
53.914361
11
21.887996
21
54.112173
0
LINE
8
Layer 1
10
21.887996
20
54.112173
11
24.707041
21
53.887006
0
LINE
8
Layer 1
10
24.707041
20
53.887006
11
27.622532
21
53.355314
0
LINE
8
Layer 1
10
27.622532
20
53.355314
11
27.489570
21
52.873166
0
LINE
8
Layer 1
10
27.489570
20
52.873166
11
27.291645
21
52.152508
0
LINE
8
Layer 1
10
27.291645
20
52.152508
11
27.161076
21
51.882280
0
LINE
8
Layer 1
10
27.161076
20
51.882280
11
26.079114
21
52.069831
0
LINE
8
Layer 1
10
26.079114
20
52.069831
11
26.079114
21
52.069831
0
LINE
8
Layer 1
10
4.961782
20
43.540030
11
5.277809
21
44.531013
0
LINE
8
Layer 1
10
5.277809
20
44.531013
11
3.885075
21
44.975159
0
LINE
8
Layer 1
10
3.885075
20
44.975159
11
3.255221
21
45.891571
0
LINE
8
Layer 1
10
3.255221
20
45.891571
11
5.894916
21
46.466109
0
LINE
8
Layer 1
10
5.894916
20
46.466109
11
6.240837
21
47.550835
0
LINE
8
Layer 1
10
6.240837
20
47.550835
11
2.666413
21
46.728501
0
LINE
8
Layer 1
10
2.666413
20
46.728501
11
1.193811
21
48.865275
0
LINE
8
Layer 1
10
1.193811
20
48.865275
11
0.845754
21
47.773853
0
LINE
8
Layer 1
10
0.845754
20
47.773853
11
2.478658
21
45.445800
0
LINE
8
Layer 1
10
2.478658
20
45.445800
11
2.472145
21
45.425727
0
LINE
8
Layer 1
10
2.472145
20
45.425727
11
0.316087
21
46.113299
0
LINE
8
Layer 1
10
0.316087
20
46.113299
11
0.000060
21
45.122317
0
LINE
8
Layer 1
10
0.000060
20
45.122317
11
4.961782
21
43.540030
0
LINE
8
Layer 1
10
6.566124
20
48.084153
11
6.995640
21
49.031484
0
LINE
8
Layer 1
10
6.995640
20
49.031484
11
2.252579
21
51.181963
0
LINE
8
Layer 1
10
2.252579
20
51.181963
11
1.823062
21
50.234630
0
LINE
8
Layer 1
10
1.823062
20
50.234630
11
6.566124
21
48.084153
0
LINE
8
Layer 1
10
7.515558
20
50.206454
11
8.033428
21
51.051325
0
LINE
8
Layer 1
10
8.033428
20
51.051325
11
6.253804
21
52.142158
0
LINE
8
Layer 1
10
6.253804
20
52.142158
11
4.638083
21
52.975903
0
LINE
8
Layer 1
10
4.638083
20
52.975903
11
4.656455
21
53.005860
0
LINE
8
Layer 1
10
4.656455
20
53.005860
11
5.884644
21
52.871279
0
LINE
8
Layer 1
10
5.884644
20
52.871279
11
9.039792
21
52.693132
0
LINE
8
Layer 1
10
9.039792
20
52.693132
11
9.594390
21
53.597924
0
LINE
8
Layer 1
10
9.594390
20
53.597924
11
5.154318
21
56.319496
0
LINE
8
Layer 1
10
5.154318
20
56.319496
11
4.640122
21
55.480616
0
LINE
8
Layer 1
10
4.640122
20
55.480616
11
6.413754
21
54.393457
0
LINE
8
Layer 1
10
6.413754
20
54.393457
11
8.039138
21
53.562031
0
LINE
8
Layer 1
10
8.039138
20
53.562031
11
8.020765
21
53.532074
0
LINE
8
Layer 1
10
8.020765
20
53.532074
11
6.786581
21
53.670327
0
LINE
8
Layer 1
10
6.786581
20
53.670327
11
3.630082
21
53.832818
0
LINE
8
Layer 1
10
3.630082
20
53.832818
11
3.075483
21
52.928026
0
LINE
8
Layer 1
10
3.075483
20
52.928026
11
7.515558
21
50.206454
0
LINE
8
Layer 1
10
11.055716
20
55.406254
11
11.728100
21
56.199866
0
LINE
8
Layer 1
10
11.728100
20
56.199866
11
8.419591
21
59.002980
0
LINE
8
Layer 1
10
8.419591
20
59.002980
11
9.369107
21
60.123690
0
LINE
8
Layer 1
10
9.369107
20
60.123690
11
8.704186
21
60.687040
0
LINE
8
Layer 1
10
8.704186
20
60.687040
11
6.137315
21
57.657369
0
LINE
8
Layer 1
10
6.137315
20
57.657369
11
6.802235
21
57.094019
0
LINE
8
Layer 1
10
6.802235
20
57.094019
11
7.747207
21
58.209368
0
LINE
8
Layer 1
10
7.747207
20
58.209368
11
11.055716
21
55.406254
0
LINE
8
Layer 1
10
12.585106
20
57.234366
11
13.371416
21
57.936562
0
LINE
8
Layer 1
10
13.371416
20
57.936562
11
12.754553
21
59.175980
0
LINE
8
Layer 1
10
12.754553
20
59.175980
11
14.007405
21
60.294813
0
LINE
8
Layer 1
10
14.007405
20
60.294813
11
15.169442
21
59.542250
0
LINE
8
Layer 1
10
15.169442
20
59.542250
11
15.987203
21
60.272534
0
LINE
8
Layer 1
10
15.987203
20
60.272534
11
11.275986
21
63.047430
0
LINE
8
Layer 1
10
11.275986
20
63.047430
11
10.358627
21
62.228201
0
LINE
8
Layer 1
10
10.358627
20
62.228201
11
12.585106
21
57.234366
0
LINE
8
Layer 1
10
12.383949
20
59.928620
11
12.120089
21
60.456215
0
LINE
8
Layer 1
10
12.120089
20
60.456215
11
11.317463
21
62.019716
0
LINE
8
Layer 1
10
11.317463
20
62.019716
11
11.338437
21
62.038439
0
LINE
8
Layer 1
10
11.338437
20
62.038439
11
12.812048
21
61.074145
0
LINE
8
Layer 1
10
12.812048
20
61.074145
11
13.306557
21
60.752527
0
LINE
8
Layer 1
10
13.306557
20
60.752527
11
12.383949
21
59.928620
0
LINE
8
Layer 1
10
18.157597
20
61.565856
11
18.795065
21
62.140112
0
LINE
8
Layer 1
10
18.795065
20
62.140112
11
19.089747
21
62.845877
0
LINE
8
Layer 1
10
19.089747
20
62.845877
11
19.010418
21
63.695208
0
LINE
8
Layer 1
10
19.010418
20
63.695208
11
18.525850
21
64.700160
0
LINE
8
Layer 1
10
18.525850
20
64.700160
11
16.976900
21
67.113258
0
LINE
8
Layer 1
10
16.976900
20
67.113258
11
16.137047
21
66.574163
0
LINE
8
Layer 1
10
16.137047
20
66.574163
11
17.735351
21
64.084176
0
LINE
8
Layer 1
10
17.735351
20
64.084176
11
18.043576
21
63.470636
0
LINE
8
Layer 1
10
18.043576
20
63.470636
11
18.113487
21
62.984417
0
LINE
8
Layer 1
10
18.113487
20
62.984417
11
17.978405
21
62.607760
0
LINE
8
Layer 1
10
17.978405
20
62.607760
11
17.671652
21
62.322907
0
LINE
8
Layer 1
10
17.671652
20
62.322907
11
17.284289
21
62.162212
0
LINE
8
Layer 1
10
17.284289
20
62.162212
11
16.889934
21
62.199027
0
LINE
8
Layer 1
10
16.889934
20
62.199027
11
16.482437
21
62.468552
0
LINE
8
Layer 1
10
16.482437
20
62.468552
11
16.055645
21
63.005985
0
LINE
8
Layer 1
10
16.055645
20
63.005985
11
14.457342
21
65.495973
0
LINE
8
Layer 1
10
14.457342
20
65.495973
11
13.587917
21
64.937895
0
LINE
8
Layer 1
10
13.587917
20
64.937895
11
15.136866
21
62.524797
0
LINE
8
Layer 1
10
15.136866
20
62.524797
11
15.849881
21
61.666483
0
LINE
8
Layer 1
10
15.849881
20
61.666483
11
16.592368
21
61.242828
0
LINE
8
Layer 1
10
16.592368
20
61.242828
11
17.362287
21
61.220423
0
LINE
8
Layer 1
10
17.362287
20
61.220423
11
18.157597
21
61.565856
0
LINE
8
Layer 1
10
18.157597
20
61.565856
11
18.157597
21
61.565856
0
LINE
8
Layer 1
10
20.908616
20
63.308213
11
22.273122
21
63.888888
0
LINE
8
Layer 1
10
22.273122
20
63.888888
11
23.168267
21
64.447648
0
LINE
8
Layer 1
10
23.168267
20
64.447648
11
23.705153
21
65.210545
0
LINE
8
Layer 1
10
23.705153
20
65.210545
11
23.847492
21
66.163571
0
LINE
8
Layer 1
10
23.847492
20
66.163571
11
23.559000
21
67.292716
0
LINE
8
Layer 1
10
23.559000
20
67.292716
11
22.948708
21
68.273340
0
LINE
8
Layer 1
10
22.948708
20
68.273340
11
22.164090
21
68.813871
0
LINE
8
Layer 1
10
22.164090
20
68.813871
11
21.232711
21
68.935349
0
LINE
8
Layer 1
10
21.232711
20
68.935349
11
20.182138
21
68.658811
0
LINE
8
Layer 1
10
20.182138
20
68.658811
11
18.869369
21
68.100149
0
LINE
8
Layer 1
10
18.869369
20
68.100149
11
20.908616
21
63.308213
0
LINE
8
Layer 1
10
21.535467
20
64.491533
11
20.153952
21
67.737893
0
LINE
8
Layer 1
10
20.153952
20
67.737893
11
20.444961
21
67.861735
0
LINE
8
Layer 1
10
20.444961
20
67.861735
11
21.088511
21
68.032968
0
LINE
8
Layer 1
10
21.088511
20
68.032968
11
21.665055
21
67.949409
0
LINE
8
Layer 1
10
21.665055
20
67.949409
11
22.165938
21
67.575870
0
LINE
8
Layer 1
10
22.165938
20
67.575870
11
22.582504
21
66.877161
0
LINE
8
Layer 1
10
22.582504
20
66.877161
11
22.799763
21
66.086474
0
LINE
8
Layer 1
10
22.799763
20
66.086474
11
22.727336
21
65.453205
0
LINE
8
Layer 1
10
22.727336
20
65.453205
11
22.393486
21
64.966468
0
LINE
8
Layer 1
10
22.393486
20
64.966468
11
21.826475
21
64.615375
0
LINE
8
Layer 1
10
21.826475
20
64.615375
11
21.535467
21
64.491533
0
LINE
8
Layer 1
10
25.574472
20
65.158302
11
28.741461
21
65.964751
0
LINE
8
Layer 1
10
28.741461
20
65.964751
11
28.526406
21
66.809282
0
LINE
8
Layer 1
10
28.526406
20
66.809282
11
26.367407
21
66.259508
0
LINE
8
Layer 1
10
26.367407
20
66.259508
11
26.024015
21
67.608033
0
LINE
8
Layer 1
10
26.024015
20
67.608033
11
27.787994
21
68.057216
0
LINE
8
Layer 1
10
27.787994
20
68.057216
11
27.572939
21
68.901747
0
LINE
8
Layer 1
10
27.572939
20
68.901747
11
25.808963
21
68.452563
0
LINE
8
Layer 1
10
25.808963
20
68.452563
11
25.512396
21
69.617197
0
LINE
8
Layer 1
10
25.512396
20
69.617197
11
27.596480
21
70.147893
0
LINE
8
Layer 1
10
27.596480
20
70.147893
11
27.381425
21
70.992422
0
LINE
8
Layer 1
10
27.381425
20
70.992422
11
24.289354
21
70.205050
0
LINE
8
Layer 1
10
24.289354
20
70.205050
11
25.574472
21
65.158302
0
LINE
8
Layer 1
10
29.783656
20
66.164117
11
30.770395
21
66.255466
0
LINE
8
Layer 1
10
30.770395
20
66.255466
11
30.577977
21
68.333916
0
LINE
8
Layer 1
10
30.577977
20
68.333916
11
30.277863
21
70.127128
0
LINE
8
Layer 1
10
30.277863
20
70.127128
11
30.312856
21
70.130379
0
LINE
8
Layer 1
10
30.312856
20
70.130379
11
30.940728
21
69.066264
0
LINE
8
Layer 1
10
30.940728
20
69.066264
11
32.687891
21
66.432994
0
LINE
8
Layer 1
10
32.687891
20
66.432994
11
33.744610
21
66.530823
0
LINE
8
Layer 1
10
33.744610
20
66.530823
11
33.264539
21
71.716449
0
LINE
8
Layer 1
10
33.264539
20
71.716449
11
32.284797
21
71.625748
0
LINE
8
Layer 1
10
32.284797
20
71.625748
11
32.476567
21
69.554295
0
LINE
8
Layer 1
10
32.476567
20
69.554295
11
32.784328
21
67.754732
0
LINE
8
Layer 1
10
32.784328
20
67.754732
11
32.749341
21
67.751502
0
LINE
8
Layer 1
10
32.749341
20
67.751502
11
32.120819
21
68.822616
0
LINE
8
Layer 1
10
32.120819
20
68.822616
11
30.360309
21
71.447591
0
LINE
8
Layer 1
10
30.360309
20
71.447591
11
29.303590
21
71.349762
0
LINE
8
Layer 1
10
29.303590
20
71.349762
11
29.783656
21
66.164117
0
LINE
8
Layer 1
10
64.478112
20
29.770727
11
64.244565
21
28.733423
0
LINE
8
Layer 1
10
64.244565
20
28.733423
11
68.569004
21
27.759784
0
LINE
8
Layer 1
10
68.569004
20
27.759784
11
68.239198
21
26.294942
0
LINE
8
Layer 1
10
68.239198
20
26.294942
11
69.108290
21
26.099264
0
LINE
8
Layer 1
10
69.108290
20
26.099264
11
69.999873
21
30.059245
0
LINE
8
Layer 1
10
69.999873
20
30.059245
11
69.130780
21
30.254923
0
LINE
8
Layer 1
10
69.130780
20
30.254923
11
68.802552
21
28.797088
0
LINE
8
Layer 1
10
68.802552
20
28.797088
11
64.478112
21
29.770727
0
LINE
8
Layer 1
10
63.594952
20
26.453425
11
63.246544
21
25.448857
0
LINE
8
Layer 1
10
63.246544
20
25.448857
11
68.276172
21
23.704464
0
LINE
8
Layer 1
10
68.276172
20
23.704464
11
68.624580
21
24.709032
0
LINE
8
Layer 1
10
68.624580
20
24.709032
11
63.594952
21
26.453425
0
LINE
8
Layer 1
10
62.802146
20
24.216182
11
61.363965
21
21.200922
0
LINE
8
Layer 1
10
61.363965
20
21.200922
11
62.168035
21
20.817407
0
LINE
8
Layer 1
10
62.168035
20
20.817407
11
63.148472
21
22.872971
0
LINE
8
Layer 1
10
63.148472
20
22.872971
11
64.432389
21
22.260585
0
LINE
8
Layer 1
10
64.432389
20
22.260585
11
63.631338
21
20.581117
0
LINE
8
Layer 1
10
63.631338
20
20.581117
11
64.435407
21
20.197602
0
LINE
8
Layer 1
10
64.435407
20
20.197602
11
65.236459
21
21.877070
0
LINE
8
Layer 1
10
65.236459
20
21.877070
11
66.345296
21
21.348191
0
LINE
8
Layer 1
10
66.345296
20
21.348191
11
65.398881
21
19.363955
0
LINE
8
Layer 1
10
65.398881
20
19.363955
11
66.202950
21
18.980440
0
LINE
8
Layer 1
10
66.202950
20
18.980440
11
67.607109
21
21.924372
0
LINE
8
Layer 1
10
67.607109
20
21.924372
11
62.802146
21
24.216182
0
LINE
8
Layer 1
10
60.830710
20
20.256903
11
59.972964
21
19.007038
0
LINE
8
Layer 1
10
59.972964
20
19.007038
11
59.507895
21
18.033770
0
LINE
8
Layer 1
10
59.507895
20
18.033770
11
59.463821
21
17.081181
0
LINE
8
Layer 1
10
59.463821
20
17.081181
11
59.864338
21
16.181273
0
LINE
8
Layer 1
10
59.864338
20
16.181273
11
60.733041
21
15.366049
0
LINE
8
Layer 1
10
60.733041
20
15.366049
11
61.797675
21
14.855569
0
LINE
8
Layer 1
10
61.797675
20
14.855569
11
62.770995
21
14.820276
0
LINE
8
Layer 1
10
62.770995
20
14.820276
11
63.640782
21
15.226896
0
LINE
8
Layer 1
10
63.640782
20
15.226896
11
64.394821
21
16.042151
0
LINE
8
Layer 1
10
64.394821
20
16.042151
11
65.220046
21
17.244628
0
LINE
8
Layer 1
10
65.220046
20
17.244628
11
60.830710
21
20.256903
0
LINE
8
Layer 1
10
60.939892
20
18.892403
11
63.913504
21
16.851698
0
LINE
8
Layer 1
10
63.913504
20
16.851698
11
63.730572
21
16.585139
0
LINE
8
Layer 1
10
63.730572
20
16.585139
11
63.269677
21
16.084156
0
LINE
8
Layer 1
10
63.269677
20
16.084156
11
62.726668
21
15.839659
0
LINE
8
Layer 1
10
62.726668
20
15.839659
11
62.089688
21
15.886743
0
LINE
8
Layer 1
10
62.089688
20
15.886743
11
61.346878
21
16.260502
0
LINE
8
Layer 1
10
61.346878
20
16.260502
11
60.725425
21
16.822997
0
LINE
8
Layer 1
10
60.725425
20
16.822997
11
60.440185
21
17.408806
0
LINE
8
Layer 1
10
60.440185
20
17.408806
11
60.460813
21
18.011799
0
LINE
8
Layer 1
10
60.460813
20
18.011799
11
60.756960
21
18.625844
0
LINE
8
Layer 1
10
60.756960
20
18.625844
11
60.939892
21
18.892403
0
LINE
8
Layer 1
10
57.820957
20
16.101514
11
55.524695
21
13.675131
0
LINE
8
Layer 1
10
55.524695
20
13.675131
11
56.171730
21
13.062794
0
LINE
8
Layer 1
10
56.171730
20
13.062794
11
57.737139
21
14.716909
0
LINE
8
Layer 1
10
57.737139
20
14.716909
11
58.770309
21
13.739146
0
LINE
8
Layer 1
10
58.770309
20
13.739146
11
57.491316
21
12.387676
0
LINE
8
Layer 1
10
57.491316
20
12.387676
11
58.138351
21
11.775340
0
LINE
8
Layer 1
10
58.138351
20
11.775340
11
59.417345
21
13.126809
0
LINE
8
Layer 1
10
59.417345
20
13.126809
11
60.309628
21
12.282377
0
LINE
8
Layer 1
10
60.309628
20
12.282377
11
58.798539
21
10.685660
0
LINE
8
Layer 1
10
58.798539
20
10.685660
11
59.445575
21
10.073324
0
LINE
8
Layer 1
10
59.445575
20
10.073324
11
61.687517
21
12.442309
0
LINE
8
Layer 1
10
61.687517
20
12.442309
11
57.820957
21
16.101514
0
LINE
8
Layer 1
10
54.723064
20
12.945862
11
53.882983
21
12.294088
0
LINE
8
Layer 1
10
53.882983
20
12.294088
11
54.798989
21
11.113434
0
LINE
8
Layer 1
10
54.798989
20
11.113434
11
54.798880
21
9.976730
0
LINE
8
Layer 1
10
54.798880
20
9.976730
11
52.242555
21
11.021368
0
LINE
8
Layer 1
10
52.242555
20
11.021368
11
51.323007
21
10.307940
0
LINE
8
Layer 1
10
51.323007
20
10.307940
11
54.810223
21
8.930747
0
LINE
8
Layer 1
10
54.810223
20
8.930747
11
54.813328
21
6.278014
0
LINE
8
Layer 1
10
54.813328
20
6.278014
11
55.738553
21
6.995846
0
LINE
8
Layer 1
10
55.738553
20
6.995846
11
55.711179
21
9.902539
0
LINE
8
Layer 1
10
55.711179
20
9.902539
11
55.728208
21
9.915750
0
LINE
8
Layer 1
10
55.728208
20
9.915750
11
57.146257
21
8.088006
0
LINE
8
Layer 1
10
57.146257
20
8.088006
11
57.986338
21
8.739780
0
LINE
8
Layer 1
10
57.986338
20
8.739780
11
54.723064
21
12.945862
0
LINE
8
Layer 1
10
50.755655
20
10.019464
11
47.834782
21
8.398151
0
LINE
8
Layer 1
10
47.834782
20
8.398151
11
48.267132
21
7.619251
0
LINE
8
Layer 1
10
48.267132
20
7.619251
11
50.258351
21
8.724534
0
LINE
8
Layer 1
10
50.258351
20
8.724534
11
50.948717
21
7.480807
0
LINE
8
Layer 1
10
50.948717
20
7.480807
11
49.321821
21
6.577753
0
LINE
8
Layer 1
10
49.321821
20
6.577753
11
49.754172
21
5.798853
0
LINE
8
Layer 1
10
49.754172
20
5.798853
11
51.381067
21
6.701907
0
LINE
8
Layer 1
10
51.381067
20
6.701907
11
51.977292
21
5.627779
0
LINE
8
Layer 1
10
51.977292
20
5.627779
11
50.055168
21
4.560851
0
LINE
8
Layer 1
10
50.055168
20
4.560851
11
50.487518
21
3.781951
0
LINE
8
Layer 1
10
50.487518
20
3.781951
11
53.339296
21
5.364911
0
LINE
8
Layer 1
10
53.339296
20
5.364911
11
50.755655
21
10.019464
0
LINE
8
Layer 1
10
46.841977
20
4.901365
11
47.404969
21
3.378454
0
LINE
8
Layer 1
10
47.404969
20
3.378454
11
46.758068
21
3.139307
0
LINE
8
Layer 1
10
46.758068
20
3.139307
11
45.964183
21
3.025820
0
LINE
8
Layer 1
10
45.964183
20
3.025820
11
45.691430
21
3.177990
0
LINE
8
Layer 1
10
45.691430
20
3.177990
11
45.500953
21
3.494138
0
LINE
8
Layer 1
10
45.500953
20
3.494138
11
45.436363
21
3.867954
0
LINE
8
Layer 1
10
45.436363
20
3.867954
11
45.534155
21
4.189062
0
LINE
8
Layer 1
10
45.534155
20
4.189062
11
46.195077
21
4.662218
0
LINE
8
Layer 1
10
46.195077
20
4.662218
11
46.841977
21
4.901365
0
LINE
8
Layer 1
10
44.134677
20
6.941334
11
43.022817
21
6.530300
0
LINE
8
Layer 1
10
43.022817
20
6.530300
11
44.943392
21
4.919483
0
LINE
8
Layer 1
10
44.943392
20
4.919483
11
44.445971
21
4.143903
0
LINE
8
Layer 1
10
44.445971
20
4.143903
11
44.403772
21
3.666583
0
LINE
8
Layer 1
10
44.403772
20
3.666583
11
44.523857
21
3.132928
0
LINE
8
Layer 1
10
44.523857
20
3.132928
11
44.936027
21
2.466694
0
LINE
8
Layer 1
10
44.936027
20
2.466694
11
45.508738
21
2.147039
0
LINE
8
Layer 1
10
45.508738
20
2.147039
11
46.199148
21
2.115041
0
LINE
8
Layer 1
10
46.199148
20
2.115041
11
46.964412
21
2.311776
0
LINE
8
Layer 1
10
46.964412
20
2.311776
11
48.696225
21
2.951990
0
LINE
8
Layer 1
10
48.696225
20
2.951990
11
46.850310
21
7.945252
0
LINE
8
Layer 1
10
46.850310
20
7.945252
11
45.853006
21
7.576568
0
LINE
8
Layer 1
10
45.853006
20
7.576568
11
46.550517
21
5.689775
0
LINE
8
Layer 1
10
46.550517
20
5.689775
11
45.856447
21
5.433190
0
LINE
8
Layer 1
10
45.856447
20
5.433190
11
44.134677
21
6.941334
0
LINE
8
Layer 1
10
42.219243
20
6.327626
11
41.174068
21
6.132298
0
LINE
8
Layer 1
10
41.174068
20
6.132298
11
41.596398
21
3.872459
0
LINE
8
Layer 1
10
41.596398
20
3.872459
11
39.619039
21
3.502919
0
LINE
8
Layer 1
10
39.619039
20
3.502919
11
39.196708
21
5.762759
0
LINE
8
Layer 1
10
39.196708
20
5.762759
11
38.158595
21
5.568751
0
LINE
8
Layer 1
10
38.158595
20
5.568751
11
39.136554
21
0.335810
0
LINE
8
Layer 1
10
39.136554
20
0.335810
11
40.174667
21
0.529818
0
LINE
8
Layer 1
10
40.174667
20
0.529818
11
39.787971
21
2.598984
0
LINE
8
Layer 1
10
39.787971
20
2.598984
11
41.765330
21
2.968523
0
LINE
8
Layer 1
10
41.765330
20
2.968523
11
42.152027
21
0.899358
0
LINE
8
Layer 1
10
42.152027
20
0.899358
11
43.197203
21
1.094686
0
LINE
8
Layer 1
10
43.197203
20
1.094686
11
42.219243
21
6.327626
0
LINE
8
Layer 1
10
34.735124
20
5.529672
11
33.770497
21
5.332729
0
LINE
8
Layer 1
10
33.770497
20
5.332729
11
33.021868
21
4.776537
0
LINE
8
Layer 1
10
33.021868
20
4.776537
11
32.538899
21
3.897044
0
LINE
8
Layer 1
10
32.538899
20
3.897044
11
32.371247
21
2.730199
0
LINE
8
Layer 1
10
32.371247
20
2.730199
11
32.550620
21
1.577118
0
LINE
8
Layer 1
10
32.550620
20
1.577118
11
33.042355
21
0.721970
0
LINE
8
Layer 1
10
33.042355
20
0.721970
11
33.796474
21
0.191444
0
LINE
8
Layer 1
10
33.796474
20
0.191444
11
34.763002
21
0.012229
0
LINE
8
Layer 1
10
34.763002
20
0.012229
11
35.727669
21
0.201202
0
LINE
8
Layer 1
10
35.727669
20
0.201202
11
36.476389
21
0.739321
0
LINE
8
Layer 1
10
36.476389
20
0.739321
11
36.959457
21
1.599395
0
LINE
8
Layer 1
10
36.959457
20
1.599395
11
37.127169
21
2.754229
0
LINE
8
Layer 1
10
37.127169
20
2.754229
11
36.947735
21
3.919321
0
LINE
8
Layer 1
10
36.947735
20
3.919321
11
36.455902
21
4.793888
0
LINE
8
Layer 1
10
36.455902
20
4.793888
11
35.701692
21
5.342487
0
LINE
8
Layer 1
10
35.701692
20
5.342487
11
34.735124
21
5.529672
0
LINE
8
Layer 1
10
34.735124
20
5.529672
11
34.735124
21
5.529672
0
LINE
8
Layer 1
10
34.739770
20
4.610099
11
35.274761
21
4.480565
0
LINE
8
Layer 1
10
35.274761
20
4.480565
11
35.681669
21
4.106565
0
LINE
8
Layer 1
10
35.681669
20
4.106565
11
35.941478
21
3.518985
0
LINE
8
Layer 1
10
35.941478
20
3.518985
11
36.035175
21
2.748712
0
LINE
8
Layer 1
10
36.035175
20
2.748712
11
35.949227
21
1.985389
0
LINE
8
Layer 1
10
35.949227
20
1.985389
11
35.695281
21
1.412500
0
LINE
8
Layer 1
10
35.695281
20
1.412500
11
35.292086
21
1.051694
0
LINE
8
Layer 1
10
35.292086
20
1.051694
11
34.758392
21
0.924618
0
LINE
8
Layer 1
10
34.758392
20
0.924618
11
34.222318
21
1.046289
0
LINE
8
Layer 1
10
34.222318
20
1.046289
11
33.813028
21
1.402990
0
LINE
8
Layer 1
10
33.813028
20
1.402990
11
33.550836
21
1.973270
0
LINE
8
Layer 1
10
33.550836
20
1.973270
11
33.456057
21
2.735680
0
LINE
8
Layer 1
10
33.456057
20
2.735680
11
33.543088
21
3.506866
0
LINE
8
Layer 1
10
33.543088
20
3.506866
11
33.799416
21
4.097054
0
LINE
8
Layer 1
10
33.799416
20
4.097054
11
34.204993
21
4.475159
0
LINE
8
Layer 1
10
34.204993
20
4.475159
11
34.739770
21
4.610099
0
LINE
8
Layer 1
10
34.739770
20
4.610099
11
34.739770
21
4.610099
 0 
ENDSEC
 0 
EOF