<?xml version="1.0" encoding="UTF-8" standalone="no"?>
<!-- Created with Inkscape (http://www.inkscape.org/) -->

<svg
   width="70mm"
   height="71.716568mm"
   viewBox="0 0 70.000002 71.71657"
   version="1.1"
   id="svg1"
   xml:space="preserve"
   inkscape:version="1.3.1 (9b9bdc1480, 2023-11-25, custom)"
   sodipodi:docname="laser_logo.svg"
   xmlns:inkscape="http://www.inkscape.org/namespaces/inkscape"
   xmlns:sodipodi="http://sodipodi.sourceforge.net/DTD/sodipodi-0.dtd"
   xmlns="http://www.w3.org/2000/svg"
   xmlns:svg="http://www.w3.org/2000/svg"><sodipodi:namedview
     id="namedview1"
     pagecolor="#ffffff"
     bordercolor="#000000"
     borderopacity="0.25"
     inkscape:showpageshadow="2"
     inkscape:pageopacity="0.0"
     inkscape:pagecheckerboard="0"
     inkscape:deskcolor="#d1d1d1"
     inkscape:document-units="mm"
     inkscape:zoom="0.73049944"
     inkscape:cx="197.12541"
     inkscape:cy="316.22201"
     inkscape:window-width="1920"
     inkscape:window-height="1019"
     inkscape:window-x="0"
     inkscape:window-y="0"
     inkscape:window-maximized="1"
     inkscape:current-layer="g5"
     showgrid="false" /><defs
     id="defs1" /><g
     inkscape:label="Layer 1"
     inkscape:groupmode="layer"
     id="layer1"
     transform="translate(-28.283261,-69.830841)"><g
       id="g5"
       transform="matrix(0.2213573,0,0,0.2213573,41.038952,73.855999)"><g
         id="g3"><circle
           style="fill:none;stroke:none;stroke-width:0.623002;stroke-miterlimit:6.6"
           id="path2"
           cx="104.57676"
           cy="135.98734"
           r="137.89778" /><path
           style="fill:#000000"
           d="m 96.305335,265.6115 c -2.120283,-0.58372 -3.271783,-1.29265 -5.188201,-3.19417 -3.576049,-3.54826 -4.811664,-7.65753 -3.652427,-12.14685 1.196748,-4.63459 5.361214,-8.22947 10.825003,-9.34443 2.65113,-0.541 4.83148,-0.2339 7.67853,1.08152 2.52355,1.16595 4.14414,2.78819 5.31331,5.31869 1.86229,4.03068 1.81387,7.70764 -0.15385,11.6842 -1.64444,3.32323 -4.81367,5.89463 -8.23812,6.6841 -1.57369,0.36281 -5.12754,0.31797 -6.584245,-0.0831 z m 10.259195,-14.98345 c 0.98102,-0.59812 1.45931,-1.58499 1.22351,-2.52449 -0.16027,-0.63858 -2.00359,-2.50148 -2.47518,-2.50148 -0.65818,0 -1.6661,0.70726 -2.17011,1.52276 -0.4909,0.7943 -0.52114,1.0255 -0.25172,1.92475 0.33844,1.12959 1.38302,2.10928 2.24738,2.10775 0.3078,-5.5e-4 0.94955,-0.23872 1.42612,-0.52929 z m 7.66087,-6.52715 c -1.48166,-2.14434 -3.25412,-4.17353 -3.9855,-4.5628 -1.08269,-0.57625 -0.85654,-1.00597 0.96376,-1.83134 2.2081,-1.0012 6.24215,-4.0218 8.39935,-6.28922 3.96278,-4.16526 6.85663,-8.55559 10.44457,-15.84567 2.77307,-5.63439 4.50077,-9.84391 6.66398,-16.23667 1.36255,-4.02662 1.46334,-3.69521 -1.38019,-4.53806 -6.97243,-2.06668 -14.49071,-4.67976 -16.4975,-5.73393 -1.25835,-0.66101 -2.98651,-1.55104 -3.84035,-1.97783 -0.85384,-0.4268 -1.50735,-0.82108 -1.45224,-0.87619 0.24011,-0.24011 4.24763,-2.79766 4.96521,-3.16874 1.30634,-0.67553 2.54942,-0.49899 5.28759,0.75092 2.34081,1.06853 8.96767,3.19817 12.03384,3.86725 1.38189,0.30155 2.18796,0.66205 2.76047,1.23456 0.83798,0.83797 1.08652,-0.0253 2.1457,-7.45256 0.4358,-3.05593 0.90709,-6.91421 1.04731,-8.57394 0.18766,-2.22126 0.38343,-3.18979 0.74178,-3.66975 0.55807,-0.74748 5.97601,-3.64992 6.36476,-3.40966 0.15515,0.0959 0.17813,0.66211 0.0578,1.42398 -0.10987,0.69563 -0.33479,3.05073 -0.49983,5.23354 -0.34017,4.49911 -0.82398,8.6147 -1.65588,14.08598 -0.31505,2.07197 -0.51457,3.82547 -0.44339,3.89665 0.0712,0.0712 2.2653,0.42644 4.87583,0.78948 5.65781,0.7868 12.03177,1.74487 12.46603,1.87377 0.22376,0.0664 0.17587,0.45026 -0.17028,1.36492 -0.26486,0.69989 -0.62964,2.19527 -0.81062,3.32305 -0.19402,1.20912 -0.45675,2.05052 -0.64029,2.05052 -1.26062,0 -7.22003,-0.97259 -11.45441,-1.86939 -2.80026,-0.59307 -5.34456,-1.04015 -5.65399,-0.99352 -0.46075,0.0694 -0.65313,0.44402 -1.06271,2.06916 -1.4194,5.63198 -5.23096,15.59877 -8.34764,21.82813 -3.79705,7.58922 -7.04646,12.40334 -12.38802,18.35327 -1.24011,1.38135 -7.37614,6.12068 -7.92448,6.12068 -0.0859,0 -0.54071,-0.55646 -1.01066,-1.23659 z m -26.981037,-5.17955 c -3.225283,-3.34475 -6.303503,-7.71139 -10.304982,-14.61823 -3.893766,-6.72092 -5.800223,-11.18891 -8.692957,-20.37291 -1.054215,-3.34698 -1.938247,-6.11449 -1.964515,-6.15001 -0.09634,-0.13028 -6.702572,0.75761 -9.399488,1.2633 -3.95205,0.74104 -8.072064,1.04562 -14.155208,1.04642 -6.033811,8.1e-4 -8.584459,-0.31094 -13.984117,-1.70917 -4.735696,-1.2263 -8.299359,-2.73307 -12.830233,-5.42482 -2.506262,-1.48894 -2.695572,-1.74782 -1.449113,-1.98166 0.542723,-0.10181 1.417146,-0.40468 1.943164,-0.67303 1.103158,-0.56279 2.904675,-2.45373 2.904675,-3.04885 0,-0.83494 0.841562,-0.6619 3.098645,0.63713 1.278922,0.73606 3.167546,1.68414 4.196941,2.10683 2.359729,0.96896 7.084532,2.10656 10.248723,2.4676 3.592829,0.40994 14.00115,0.11089 19.100481,-0.54881 4.61538,-0.59709 8.006977,-1.19538 8.270565,-1.45897 0.09227,-0.0923 -0.09451,-1.7418 -0.415072,-3.66562 -0.8323,-4.99498 -1.572628,-10.76487 -1.755815,-13.6843 -0.08675,-1.38245 -0.228608,-3.25768 -0.315251,-4.16719 -0.183795,-1.92933 -0.04589,-2.00764 1.576235,-0.89507 0.608302,0.41722 1.879911,1.14452 2.825796,1.61623 2.733733,1.3633 2.897838,1.58778 2.886476,3.94847 -0.01631,3.38869 1.428291,12.98325 2.160932,14.3522 0.187832,0.35097 0.435622,0.47359 0.727571,0.36006 0.243501,-0.0947 1.93101,-0.51118 3.75002,-0.92553 3.662881,-0.83434 9.872825,-2.66794 13.799195,-4.07446 1.404923,-0.50327 4.500547,-1.40069 6.879167,-1.99425 6.208412,-1.54926 8.433172,-2.454 10.312212,-4.19366 l 1.53319,-1.41947 3.51572,-0.50541 c 5.90983,-0.84957 7.87365,-1.40845 13.10727,-3.73018 9.32055,-4.13475 14.63442,-8.17576 22.48209,-17.09679 2.10014,-2.38738 4.27747,-4.57366 5.28079,-5.30249 4.77583,-3.46924 7.07813,-5.25673 9.60911,-7.46048 1.52797,-1.33041 3.64766,-3.14644 4.71043,-4.03563 2.48669,-2.08054 4.68474,-4.66301 6.89004,-8.09505 0.96854,-1.50732 2.50071,-3.70997 3.40481,-4.89479 6.01519,-7.88284 11.61286,-18.00939 13.93864,-25.215873 1.30478,-4.04289 1.66514,-5.583653 2.27235,-9.715622 0.8743,-5.949505 0.63076,-9.538499 -0.84489,-12.4506 -0.29939,-0.590812 -1.39159,-1.908802 -2.42713,-2.928868 -4.78966,-4.718109 -12.94286,-6.469681 -26.45796,-5.684026 -5.06355,0.294352 -7.76212,0.685775 -13.74202,1.993249 -2.30226,0.503379 -4.33714,0.915234 -4.52195,0.915234 -0.19271,0 -0.47938,-0.640568 -0.67213,-1.50185 -0.18485,-0.826017 -0.62052,-2.257485 -0.96814,-3.18104 -0.34763,-0.923554 -0.63205,-1.782491 -0.63205,-1.908748 0,-0.538685 6.2135,-1.80734 13.65212,-2.787452 9.61411,-1.266754 21.09785,-1.143475 26.8047,0.28775 3.94592,0.989598 9.10093,3.583434 11.75766,5.916076 2.32114,2.037986 4.78204,6.095196 5.66245,9.33551 0.60304,2.219483 0.58646,8.621808 -0.0313,12.096003 -1.67935,9.444076 -5.47743,19.476237 -10.77954,28.472857 -2.57493,4.36915 -6.68876,10.27084 -9.47714,13.59589 -9.17635,10.94248 -12.58886,14.39211 -20.5233,20.74649 -6.29343,5.04017 -10.14056,7.86966 -13.36146,9.82711 -1.38245,0.84016 -3.70417,2.3253 -5.15938,3.30032 -1.4552,0.97502 -4.13411,2.55664 -5.95312,3.51472 -1.81901,0.95808 -4.67651,2.46483 -6.35,3.34833 -3.28497,1.73427 -5.85168,2.98916 -12.03854,5.88578 -2.18281,1.02196 -5.93328,2.78296 -8.33438,3.91332 -2.40109,1.13036 -5.97296,2.71363 -7.93749,3.51836 -1.964536,0.80474 -4.286255,1.8169 -5.15938,2.24926 -2.362822,1.17002 -9.302063,3.60756 -13.361457,4.69348 -1.964531,0.52552 -4.464844,1.23764 -5.55625,1.58247 -1.091406,0.34484 -2.49039,0.75711 -3.108854,0.91616 -0.618464,0.15905 -1.124479,0.41862 -1.124479,0.57682 0,0.46802 2.535379,7.86967 3.383777,9.87842 2.558001,6.05658 3.408244,7.92268 5.463457,11.9911 4.011955,7.94191 8.528145,13.50057 13.946826,17.16614 l 2.657996,1.79806 -1.130615,0.19301 c -2.37778,0.40592 -4.806509,1.47239 -7.164369,3.14592 -0.386266,0.27416 -0.786283,0.49848 -0.888926,0.49848 -0.102643,0 -0.904184,-0.74415 -1.781203,-1.65365 z m 88.183367,-28.53329 c -3.79514,-0.74395 -7.48975,-4.14055 -8.58759,-7.89494 -0.83916,-2.86976 -0.3226,-6.96872 1.18954,-9.439 1.37078,-2.23937 4.5872,-4.34971 7.4271,-4.87302 1.81023,-0.33358 4.41068,0.12894 6.83048,1.21488 1.97044,0.88428 4.25672,3.21437 5.23146,5.33169 1.02234,2.22071 1.16735,5.77615 0.32986,8.08759 -1.45614,4.0189 -4.05234,6.33917 -8.3437,7.45693 -1.70498,0.44409 -2.31441,0.46141 -4.07715,0.11587 z m 15.20964,-17.53545 c -0.62542,-1.31795 -1.33202,-2.32455 -2.11644,-3.01502 l -1.17756,-1.03653 2.17213,-1.70912 c 3.56871,-2.80802 5.08188,-5.60845 5.48395,-10.14923 0.41869,-4.72852 -0.53176,-10.53999 -2.56322,-15.67265 -0.53345,-1.34778 -0.92011,-2.48726 -0.85925,-2.53217 0.0609,-0.0449 1.00361,-0.4239 2.09502,-0.84219 1.0914,-0.41829 2.31695,-1.0921 2.72344,-1.49735 l 0.73907,-0.73682 0.77379,1.22014 c 2.4307,3.83281 4.74064,13.29579 4.75436,19.47688 0.009,4.2128 -0.91406,7.42783 -3.2455,11.29978 -1.58949,2.63974 -3.50116,4.76843 -5.34829,5.95545 -2.33574,1.50101 -2.36062,1.4955 -3.4315,-0.76117 z M 9.1251316,188.35739 c -3.699759,-0.94972 -5.9576003,-3.64371 -6.1731956,-7.36569 -0.2629516,-4.53952 2.1075433,-7.40564 6.7605668,-8.17407 2.6727782,-0.4414 4.4084472,-0.0171 6.5011532,1.58936 2.290093,1.75795 3.097933,3.34494 3.097933,6.08586 0,1.65828 -0.126635,2.28862 -0.684812,3.40874 -1.660489,3.33217 -5.982742,5.35909 -9.5016454,4.4558 z M 90.484502,177.89643 C 85.062402,176.13746 76.319251,171.51251 67.385155,165.67734 62.248933,162.3227 50.962511,153.86342 46.347012,149.90906 37.664139,142.46994 29.802577,133.47347 23.151145,123.36458 14.836093,110.72732 9.5124343,96.533733 8.8192515,85.153829 8.6502743,82.37975 8.66337,82.273156 9.1487898,82.471514 c 1.4109422,0.576557 3.3467522,0.93503 5.0645302,0.937849 2.226985,0.0037 2.063502,-0.257019 2.325056,3.707307 0.224196,3.398082 1.254721,8.580785 2.343109,11.783933 2.891731,8.510417 7.696085,17.487007 13.347346,24.938547 0.850499,1.12144 2.51408,3.48698 3.696846,5.25677 3.469922,5.19208 5.266138,7.14097 11.174995,12.12483 3.720745,3.13828 7.300765,5.96007 10.362609,8.16784 3.704483,2.67116 4.994907,3.85232 6.73589,6.16555 2.995455,3.98003 6.858616,7.66549 10.867897,10.36801 2.749132,1.8531 8.996437,4.95013 12.639309,6.2658 4.268478,1.54161 7.644991,2.39616 11.244792,2.8459 l 2.778121,0.34708 -0.85682,0.45536 c -0.902879,0.47985 -6.429653,2.12334 -8.006718,2.38095 -0.563237,0.092 -1.496162,-0.0337 -2.38125,-0.32081 z m -76.199996,-8.26178 c -1.094584,-0.58666 -1.976471,-0.61527 -4.034895,-0.13088 l -1.5213544,0.35801 0.00573,-0.82516 c 0.018105,-2.60897 2.8642164,-11.45094 4.1594874,-12.92222 0.378357,-0.42978 0.437335,-0.42675 1.048133,0.0537 0.35597,0.28001 1.650309,0.88769 2.87631,1.35042 1.226001,0.46272 2.229093,0.94931 2.229093,1.08131 0,0.132 -0.238941,0.70836 -0.530981,1.28081 -0.529797,1.03849 -2.443897,7.44226 -2.786666,9.323 -0.203508,1.11664 -0.17918,1.10938 -1.444853,0.43101 z m 84.005204,0.0419 c -9.969067,-1.79336 -16.728264,-4.8862 -24.341665,-11.13812 -2.353536,-1.93266 -3.582509,-3.21488 -6.030554,-6.29183 -2.913886,-3.66246 -6.406173,-9.71071 -7.055857,-12.21996 -0.168599,-0.65117 -0.357329,-1.36254 -0.419401,-1.58083 -0.08765,-0.30824 -0.458761,-0.37733 -1.661803,-0.30935 -3.249169,0.18358 -8.51869,-1.17173 -11.169556,-2.87279 -1.704413,-1.09372 -4.362202,-3.85778 -5.682327,-5.90955 -0.613966,-0.95424 -1.459341,-2.78155 -1.87861,-4.0607 -0.666821,-2.03441 -0.760523,-2.70686 -0.748067,-5.36844 0.01735,-3.70704 0.507168,-5.73099 2.046203,-8.45499 2.109847,-3.73431 5.397582,-6.41956 9.583763,-7.82751 1.997919,-0.67197 2.317733,-0.70394 5.818293,-0.58172 2.484022,0.0867 4.085525,0.27095 4.861911,0.55927 0.636759,0.23648 1.190992,0.42995 1.231629,0.42995 0.04064,0 0.399271,-0.56554 0.796964,-1.25677 2.983952,-5.186362 7.204466,-10.269714 11.365745,-13.689347 3.732916,-3.067616 5.934595,-4.520795 9.128125,-6.024858 3.608336,-1.699425 4.797405,-2.134361 8.45478,-3.092577 2.231382,-0.584612 3.382904,-1.043243 4.365625,-1.738754 4.555342,-3.223992 7.286692,-5.321392 9.814002,-7.536128 3.94844,-3.460116 6.26749,-5.283444 6.52079,-5.126895 0.35534,0.219611 0.23028,6.460754 -0.16701,8.335112 -0.20426,0.963638 -0.73797,2.47829 -1.18603,3.365892 -0.44806,0.887602 -0.81466,1.715659 -0.81466,1.840126 0,0.124468 0.32742,0.17882 0.72761,0.120784 1.21248,-0.175842 5.83608,0.686532 9.0577,1.689405 3.12008,0.971266 6.31514,2.445083 9.46133,4.364325 5.83306,3.558288 12.76752,10.780396 16.27014,16.945045 l 1.15444,2.03182 1.17741,-0.52909 c 2.4734,-1.11146 7.62069,-1.09297 10.64414,0.0382 3.06125,1.14536 5.66811,3.09165 7.95732,5.94096 2.464,3.06688 3.34574,5.6554 3.34574,9.82211 0,3.13221 -0.50135,5.34526 -1.85381,8.18302 -2.08108,4.36658 -5.2833,7.17474 -10.18473,8.93142 -2.12566,0.76184 -6.63211,1.59063 -8.0055,1.4723 -0.9251,-0.0797 -0.93434,-0.0699 -1.29576,1.37148 -0.93963,3.74738 -5.93123,11.81513 -9.87552,15.96143 -7.20954,7.57879 -17.13261,12.81879 -27.12807,14.32529 -3.69907,0.55752 -10.85898,0.49849 -14.28473,-0.11778 z m 12.51921,-7.83363 c 2.98255,-0.44287 7.25661,-1.86398 10.49954,-3.49107 3.05887,-1.53474 5.69263,-3.44877 8.08609,-5.87641 1.787,-1.81251 2.49453,-2.76799 3.35123,-4.52559 1.83241,-3.75941 2.4133,-7.05095 1.92902,-10.93054 -0.32277,-2.58581 -0.78368,-3.93038 -1.6711,-4.87499 l -0.58263,-0.62018 0.7937,-0.5517 c 1.61182,-1.1204 3.7204,-3.57176 4.5674,-5.30992 1.14705,-2.35391 1.64159,-4.57866 1.64634,-7.40631 0.005,-3.01869 -0.29797,-4.226 -1.8982,-7.56251 -1.13783,-2.3724 -1.63248,-3.06582 -3.61077,-5.06167 -3.62593,-3.65811 -6.49599,-4.84261 -11.65715,-4.811 -5.90338,0.0362 -11.70675,2.47928 -15.74713,6.62929 l -1.29946,1.33471 -1.90143,-1.77221 c -3.400789,-3.16967 -8.6218,-5.68255 -12.843813,-6.18175 -2.83632,-0.33537 -6.325568,0.015 -8.591237,0.86271 -7.115129,2.66212 -11.998673,11.28747 -11.002375,19.43248 0.460245,3.76263 2.025127,6.50124 5.229656,9.15212 1.465021,1.21191 1.627935,1.43575 1.309494,1.79921 -2.450491,2.7969 -2.656363,10.68569 -0.395905,15.17068 1.514857,3.00565 5.123872,6.96298 8.304938,9.10648 3.647257,2.45763 9.407319,4.71947 13.969041,5.48531 2.980231,0.50033 8.155811,0.50161 11.514751,0.003 z m -8.02129,-10.35304 c -3.609272,-0.32789 -9.516102,-2.15085 -11.955129,-3.68958 -3.047815,-1.9228 -5.409382,-4.43379 -6.857377,-7.29127 -0.862824,-1.70271 -0.815287,-2.39242 0.225524,-3.27217 1.088775,-0.92028 2.937534,-1.7506 3.455385,-1.55188 0.218136,0.0837 0.662732,0.8638 0.987993,1.73354 0.757982,2.02682 2.411248,3.86207 4.834371,5.36652 5.208264,3.23365 11.673123,4.12346 17.511313,2.41023 5.45833,-1.60176 9.22514,-4.35466 10.59913,-7.74616 0.43134,-1.06469 0.77606,-1.54193 1.15646,-1.60102 0.67514,-0.10487 2.92515,1.09818 3.84024,2.05334 l 0.68539,0.71539 -0.46664,1.25905 c -0.64391,1.73737 -2.80829,4.49806 -4.91975,6.27518 -4.35688,3.66702 -12.48538,5.93946 -19.09691,5.33883 z m 0.4287,-16.39205 c -2.32219,-1.18294 -3.20471,-4.40187 -1.69783,-6.19269 1.72944,-2.05533 5.35587,-2.09765 7.36754,-0.086 1.17049,1.17049 1.37266,2.44211 0.63164,3.97286 -1.10092,2.27421 -4.16347,3.39486 -6.30135,2.30581 z m -21.82698,-11.39825 -1.554527,-0.0988 0.118184,-2.04156 c 0.208107,-3.59493 2.171376,-6.69157 5.173749,-8.16049 2.101638,-1.02824 5.13524,-1.1669 7.340171,-0.33552 3.255302,1.22744 5.901299,4.85814 6.158303,8.4501 l 0.126671,1.7704 -1.260211,0.17273 c -2.352417,0.32243 -2.745637,0.24818 -2.93865,-0.55488 -0.860016,-3.57824 -4.128873,-5.44516 -7.111246,-4.06139 -1.435148,0.66588 -2.694387,2.05198 -3.288558,3.61986 -0.271258,0.71579 -0.654332,1.30974 -0.851277,1.31991 -0.196945,0.0102 -1.057619,-0.026 -1.912609,-0.0803 z m 31.08528,-0.26193 c -0.61289,-0.11587 -0.62741,-0.17603 -0.48638,-2.01449 0.56035,-7.30476 6.87869,-11.02369 13.33163,-7.84691 2.74053,1.34916 4.58604,3.97381 5.16115,7.34012 0.40682,2.3813 0.28992,2.52934 -2.10404,2.66462 l -1.78531,0.10087 -0.32477,-1.2143 c -0.41483,-1.551 -1.87993,-3.17784 -3.37667,-3.74945 -2.38167,-0.90957 -5.06421,0.26826 -6.33857,2.7831 -0.36694,0.72413 -0.66717,1.49915 -0.66717,1.72227 0,0.31756 -0.30168,0.39784 -1.38906,0.36964 -0.76399,-0.0198 -1.67335,-0.0898 -2.02081,-0.15547 z m -54.747714,1.38214 c -0.131129,-4.79175 0.37768,-9.43442 1.304853,-11.90627 0.27292,-0.7276 0.496278,-1.3686 0.496352,-1.42443 7.3e-5,-0.0558 -1.160726,-0.0416 -2.579554,0.0318 -3.005484,0.15527 -4.821621,0.75728 -6.545105,2.16954 -3.151024,2.58203 -3.691234,8.18128 -1.116731,11.57484 1.562577,2.05969 5.083592,3.86551 7.61465,3.90532 l 0.945001,0.0149 z m 97.051334,3.81884 c 5.46582,-1.16873 8.74379,-6.21745 7.28805,-11.22502 -0.36689,-1.26207 -0.75086,-1.84811 -2.08299,-3.17914 -1.96911,-1.96748 -3.67741,-2.69632 -6.90054,-2.94407 l -2.21005,-0.16987 0.6052,2.26635 c 0.88202,3.30301 1.28179,7.58053 1.11783,11.96075 -0.12735,3.40204 -0.0985,3.76478 0.29303,3.68768 0.23884,-0.047 1.0891,-0.22554 1.88947,-0.39668 z M 53.310546,168.37071 c -2.182812,-0.55169 -5.337969,-1.42829 -7.011458,-1.94798 -1.67349,-0.5197 -4.769114,-1.44002 -6.879166,-2.04517 -8.570814,-2.45802 -14.429976,-4.71047 -22.224999,-8.54398 -16.24671206,-7.98996 -25.8491666,-15.58227 -28.605196,-22.61709 -0.855214,-2.18295 -0.854563,-6.60703 0.0013,-9.04462 0.682701,-1.94434 2.6676665,-4.95184 4.7711794,-7.22901 1.7515956,-1.8962 6.33320417,-5.52364 9.3211855,-7.37995 1.7542383,-1.08984 7.3461781,-3.92541 7.7411731,-3.92541 0.04784,0 0.240363,0.56555 0.427838,1.25677 0.187474,0.69123 0.625441,1.82976 0.97326,2.53007 1.319812,2.65738 1.378174,2.43544 -0.947994,3.60502 -4.4466764,2.23574 -9.6509291,6.15638 -12.3091992,9.27316 -1.9397013,2.27427 -2.6162071,3.94913 -2.6327264,6.51798 -0.012242,1.90371 0.083958,2.34724 0.8439565,3.89101 1.9360549,3.93269 9.2402654,9.72282 17.6370691,13.9811 1.74625,0.88558 3.353692,1.76519 3.572093,1.95469 0.781724,0.67829 4.665695,2.69984 5.565154,2.89659 0.504306,0.11031 2.643325,0.88952 4.753377,1.73157 2.110052,0.84205 7.051146,2.55835 10.980208,3.814 10.11186,3.23153 10.990893,3.54418 12.73223,4.52843 0.855398,0.4835 2.329175,1.24212 3.275061,1.68583 2.757214,1.29339 3.051247,1.50991 2.96649,2.18447 -0.04192,0.33363 -0.145086,1.35074 -0.22926,2.26025 -0.09065,0.97954 -0.275298,1.64788 -0.452949,1.6395 -0.164948,-0.008 -2.085844,-0.46554 -4.268656,-1.01723 z m 99.170514,-0.54802 c -0.0265,-0.74073 -0.19047,-1.77781 -0.36433,-2.30461 -0.29152,-0.88331 -0.26719,-0.99724 0.31281,-1.46462 1.3075,-1.05363 6.03942,-3.14412 9.09558,-4.01829 15.6765,-4.48402 23.21889,-7.32969 27.62089,-10.42109 1.05749,-0.74265 2.53822,-1.55365 3.2905,-1.80223 1.95265,-0.64522 7.39204,-3.2581 9.56986,-4.59699 3.00767,-1.84908 6.74538,-4.7218 8.757,-6.73043 4.14951,-4.14336 4.99172,-7.847 2.68149,-11.79189 -1.12164,-1.91529 -5.88643,-6.66968 -8.39578,-8.37746 -1.09141,-0.74277 -3.11547,-1.97306 -4.49792,-2.73397 -1.38244,-0.76091 -2.61176,-1.47539 -2.7318,-1.58774 -0.12005,-0.11235 0.2514,-1.32049 0.82544,-2.68476 0.57404,-1.36426 1.12114,-2.80841 1.21578,-3.20921 l 0.17206,-0.72872 1.6397,0.82771 c 11.08041,5.59337 18.23344,11.98934 20.28636,18.13928 0.71235,2.13397 0.94618,4.85111 0.58796,6.83212 -0.40151,2.22047 -2.37877,6.0121 -4.1973,8.04886 -4.24668,4.75626 -14.02405,11.38588 -21.76547,14.75822 -2.10924,0.91884 -4.72862,2.18825 -5.82084,2.82091 -3.97174,2.30063 -11.68592,5.27059 -19.84522,7.64044 -3.20442,0.93071 -14.75386,3.91335 -17.85937,4.61217 -0.47103,0.106 -0.53447,-0.0289 -0.5774,-1.2277 z m 33.06558,-18.61394 c -0.43136,-0.46257 -1.74416,-2.0912 -2.91733,-3.61917 -1.17317,-1.52797 -2.50225,-3.12782 -2.95351,-3.55523 -0.45126,-0.4274 -0.82047,-0.88037 -0.82047,-1.00658 0,-0.12621 0.68461,-1.03084 1.52136,-2.0103 0.83674,-0.97946 1.81932,-2.17399 2.18351,-2.65453 l 0.66217,-0.8737 2.31693,2.62086 c 2.69506,3.04858 4.4221,5.41233 5.5076,7.53808 0.42516,0.8326 0.77301,1.57325 0.77301,1.6459 0,0.0726 -0.68461,0.43623 -1.52135,0.80797 -0.83675,0.37174 -2.07177,0.96206 -2.7445,1.31182 l -1.22314,0.63592 z M 22.089714,149.03163 c -0.727604,-0.43024 -1.947268,-0.92324 -2.710364,-1.09556 l -1.387448,-0.3133 1.272309,-2.41678 c 1.496543,-2.84272 2.886068,-4.79652 5.444741,-7.65582 l 1.866935,-2.08628 0.535038,0.72892 c 0.294272,0.40091 1.280767,1.63075 2.192212,2.73298 l 1.657174,2.00405 -0.893225,0.94081 c -1.160847,1.22269 -3.203456,3.91793 -4.673203,6.16633 -0.642093,0.98226 -1.350549,1.78391 -1.574347,1.78142 -0.223798,-0.002 -1.002218,-0.35652 -1.729822,-0.78677 z m 1.996507,-45.18968 c -0.321415,-1.10619 -0.867834,-2.57059 -1.214266,-3.25424 l -0.629876,-1.243004 2.569651,-1.064558 c 9.61609,-3.983766 25.523218,-9.153905 33.738158,-10.965584 l 1.79976,-0.39691 -0.135618,0.694821 c -0.07459,0.382151 -0.395176,2.093715 -0.712415,3.803475 l -0.576796,3.108655 -1.087345,0.272778 c -1.260967,0.316334 -16.118775,5.042179 -23.819276,7.576237 -2.898188,0.95372 -6.187017,2.12679 -7.30851,2.6068 l -2.039077,0.87277 z m 156.356609,0.19046 c -2.11005,-0.87248 -5.38427,-2.06706 -7.27604,-2.65462 -1.89177,-0.58757 -6.17802,-1.943652 -9.525,-3.013524 -3.34698,-1.069872 -7.3951,-2.327545 -8.99583,-2.79483 -1.60073,-0.467284 -2.95166,-0.885079 -3.00208,-0.928434 -0.0504,-0.04335 -0.20862,-1.046352 -0.35158,-2.228884 -0.14297,-1.182532 -0.47269,-2.917302 -0.73271,-3.855045 -0.26003,-0.937742 -0.39947,-1.703312 -0.30987,-1.701266 1.8968,0.04332 20.34063,5.95877 28.60561,9.174622 4.55415,1.771992 8.46804,3.509231 8.46409,3.756914 -0.001,0.08889 -0.39271,1.411777 -0.86955,2.939747 -0.77801,2.49309 -0.93383,2.78394 -1.51877,2.83489 -0.3585,0.0312 -2.37822,-0.65708 -4.48827,-1.52957 z M 145.91471,92.876424 c -1.74418,-2.492154 -4.05009,-4.950797 -5.68058,-6.056838 -1.10555,-0.749945 -1.31833,-1.027075 -1.32406,-1.724471 -0.0229,-2.791261 -4.16308,-15.057394 -6.95027,-20.591697 -1.30207,-2.585409 -3.86619,-6.957799 -5.90117,-10.062788 -5.03797,-7.686985 -10.9561,-13.441175 -15.65003,-15.216502 -1.8886,-0.714301 -4.59961,-0.988591 -7.2241,-0.730906 -3.701536,0.363435 -8.871932,3.579315 -12.730291,7.917981 -7.644756,8.596412 -13.79522,20.058644 -17.271017,32.186906 -0.77971,2.720677 -1.49738,5.498546 -1.594822,6.173041 -0.165788,1.147584 -0.277293,1.288156 -1.735963,2.188498 -1.747929,1.078884 -4.045704,3.463912 -5.631709,5.845563 -0.611569,0.918373 -0.983735,1.308697 -0.882961,0.926042 0.09581,-0.363802 0.349646,-1.971146 0.564082,-3.571875 2.24853,-16.784846 9.510596,-34.488177 19.047801,-46.434372 5.550177,-6.952091 12.037199,-11.566905 18.05092,-12.841275 3.51015,-0.743839 8.48721,-0.329094 11.83465,0.986198 2.22907,0.875855 5.991,3.26189 8.12893,5.155832 4.51833,4.002696 10.82218,12.219625 14.37522,18.737786 2.34842,4.308231 5.76373,12.475889 7.52181,17.988225 1.74349,5.466618 5.10489,21.069325 4.52985,21.026352 -0.0844,-0.0063 -0.74869,-0.862069 -1.47629,-1.9017 z M 11.506381,79.348927 C 7.9789226,78.188249 5.3964107,75.817849 4.5010337,72.918956 3.2069833,68.729308 4.2588391,63.901784 6.987838,61.505691 c 5.677524,-4.984933 14.005804,-3.412075 17.115087,3.232311 2.49321,5.327868 -0.03767,12.156678 -5.267154,14.211826 -1.842845,0.724223 -5.70256,0.934392 -7.32939,0.399099 z m 110.992699,-3.30036 -2.77812,-0.688196 v -2.57391 -2.573911 l 3.83646,-0.930926 c 4.81627,-1.168681 6.85705,-1.594736 6.97347,-1.455858 0.1133,0.135162 2.28694,6.757187 2.28694,6.967202 0,0.08408 -0.26789,0.154937 -0.59531,0.157463 -1.27212,0.0098 -4.33463,0.814455 -5.01637,1.317991 -0.88634,0.654659 -1.2443,0.637939 -4.70707,-0.219855 z M 84.663669,76.023307 C 84.445388,75.89716 82.778513,75.405986 80.959503,74.931809 79.140492,74.457632 77.60412,74.0302 77.545342,73.981961 c -0.05878,-0.04824 0.253983,-0.892897 0.695025,-1.877018 0.441041,-0.984121 0.95109,-2.354858 1.133442,-3.046082 0.182352,-0.691224 0.464903,-1.25661 0.627892,-1.256413 0.476614,5.74e-4 12.924604,3.152029 13.723947,3.474488 0.400182,0.161436 0.727604,0.406989 0.727604,0.545675 0,0.138685 -0.565547,0.828663 -1.256771,1.533285 -1.1217,1.143442 -1.545574,1.368815 -3.943959,2.096996 -2.747583,0.834201 -3.887267,0.975869 -4.588853,0.570415 z M 60.189712,70.571832 C 53.613698,69.260398 49.56754,68.822909 42.594921,68.669403 36.977576,68.545734 33.4666,68.716851 29.891461,69.288538 l -0.983626,0.157289 -0.122026,-2.107922 c -0.08232,-1.422019 -0.306668,-2.481116 -0.68947,-3.254828 -0.312094,-0.630798 -0.532834,-1.181516 -0.490533,-1.223818 0.0423,-0.0423 1.497392,-0.321416 3.233535,-0.620255 7.131786,-1.227582 12.928562,-1.196641 23.151907,0.123577 4.410453,0.569556 12.88386,2.114833 13.170994,2.401967 0.05146,0.05146 -0.218842,1.031625 -0.600669,2.178146 -0.381827,1.146522 -0.784191,2.611559 -0.894144,3.255638 -0.123621,0.724145 -0.348728,1.19003 -0.589857,1.220779 -0.214469,0.02735 -2.414006,-0.353926 -4.88786,-0.847279 z"
           id="path1"
           sodipodi:nodetypes="ssssssssssssssssssssssssssssssssssssssssssssssssssssssssssssssssssssssssssssssscsssssssssssssssssssssscsssssssssssssssssscsssssssssssssssscsssssscscsssssssssscssssscsssssssssscsscsscssssssssscssssssssssscsssssssssssssssscscsssssssscccssssscsscsscscsscssssssccssssssssssscsssssssssccsssscsssscccssssscssssssssscssccssssscsssscscssssssssssssssssssssscccsssssssssssssscssssssssssssssscssssscssscsscsscsscssscsscsscssccsssssssssscssssscsssssssssssssssssssssssssscccsssssssssssssssssssscssssssssss" /><g
           id="g4"><g
             id="text3"
             style="font-size:31.75px;line-height:1.2;-inkscape-font-specification:sans-serif;stroke-width:0.264583;stroke-miterlimit:6.6"
             inkscape:transform-center-x="12.118164"
             inkscape:transform-center-y="-120.36968"
             transform="rotate(-166.83733,102.01462,140.02849)"
             aria-label="KINTAUDEN                                 TIEDEKERHO"><path
               style="font-weight:bold;font-family:'Noto Sans CJK HK';-inkscape-font-specification:'Noto Sans CJK HK'"
               d="m 242.67594,138.89047 -0.37072,4.68435 6.58342,0.52101 3.71341,3.38326 -11.02073,5.24288 -0.40578,5.12747 14.8776,-7.2945 8.67601,7.88456 0.40829,-5.15912 -9.57794,-8.56107 0.008,-0.095 10.19163,0.80656 0.37072,-4.68435 z m -2.38267,21.63962 -0.91485,4.60908 23.07656,4.58042 0.91485,-4.60909 z m -1.99319,10.31252 -1.40892,4.24926 8.95058,2.96772 c 2.56162,0.84934 5.49422,1.38685 7.96511,2.00542 l -0.05,0.15068 -5.54114,0.67147 -14.06247,2.46215 -1.50884,4.55063 22.33124,7.4043 1.39892,-4.21913 -8.92044,-2.95772 c -2.53147,-0.83936 -5.60477,-1.45696 -8.00523,-1.98528 l 0.05,-0.15068 5.57129,-0.66148 14.05231,-2.53241 1.50884,-4.55063 z m -10.22363,26.51532 -2.14134,4.18273 17.43748,8.92707 -3.02392,5.9067 3.50446,1.7941 8.17471,-15.96787 -3.50446,-1.7941 -3.00945,5.87844 z m -4.84701,9.61503 -2.73653,3.8978 3.98855,4.8175 -4.3602,6.21049 -5.88588,-2.11503 -2.84599,4.05371 23.57884,7.35993 3.19261,-4.54743 z m 3.65654,11.64484 1.70345,2.0494 c 1.59951,1.97643 3.39916,4.05458 5.1391,6.05201 l -0.073,0.10394 c -2.4542,-0.86956 -5.05381,-1.9188 -7.47428,-2.72589 l -2.50616,-0.90605 z m -23.71347,13.14159 c -3.98009,4.10123 -3.97778,8.749 1.60445,14.16635 l 9.29612,9.02154 3.13985,-3.23541 -9.59232,-9.309 c -3.50883,-3.40519 -3.43327,-5.85372 -1.53167,-7.81319 1.92371,-1.98226 4.30254,-2.06283 7.81137,1.34236 l 9.59232,9.309 3.25041,-3.34934 -9.29612,-9.02154 c -5.58223,-5.41735 -10.25009,-5.25757 -14.27441,-1.11077 z m -10.30906,10.49453 -5.40498,3.95805 c -5.6099,4.10813 -6.84446,9.89195 -2.15483,16.29595 4.67088,6.37838 10.44502,6.79363 16.25985,2.53544 l 5.20004,-3.80799 z m -1.54014,5.85018 9.41679,12.85923 -1.15272,0.84414 c -3.56062,2.60744 -7.03918,2.47878 -10.41572,-2.13209 -3.37654,-4.61088 -2.5617,-8.1197 0.99893,-10.72714 z m -17.08129,7.08811 -13.10167,6.80548 1.8148,3.49378 8.93167,-4.63944 2.89782,5.57878 -7.29749,3.79058 1.8148,3.49378 7.29748,-3.79058 2.50267,4.81803 -8.62175,4.47845 1.8148,3.49377 12.79174,-6.64449 z m -17.4811,8.75461 -4.2466,1.41693 2.9846,8.94496 c 0.85417,2.56001 2.18027,5.23032 3.16491,7.57944 l -0.15059,0.0503 -3.85664,-4.03503 -10.39454,-9.78615 -4.54777,1.51742 7.44641,22.31723 4.21649,-1.40688 -2.97455,-8.91485 c -0.84413,-2.52989 -2.19036,-5.36083 -3.20508,-7.59951 l 0.15058,-0.0502 3.8667,4.06515 10.44472,9.73593 4.54777,-1.51742 z"
               id="path3" /><path
               style="font-weight:bold;font-size:32.4556px;font-family:'Noto Sans CJK HK';-inkscape-font-specification:'Noto Sans CJK HK';direction:rtl"
               d="m -33.296284,139.54661 -0.03976,-4.80326 -20.024419,0.16576 -0.05615,-6.78299 -4.024357,0.0333 0.151788,18.33679 4.024356,-0.0333 -0.05588,-6.75054 z m 0.472313,-15.50104 0.499178,-4.77742 -23.919384,-2.49926 -0.499178,4.77742 z m 1.185947,-10.65701 3.224515,-14.743357 -3.931562,-0.859871 -2.198218,10.050848 -6.277816,-1.37302 1.79602,-8.211891 -3.931562,-0.85987 -1.79602,8.211891 -5.421751,-1.18579 2.121939,-9.702079 -3.931561,-0.859871 -3.148237,14.39459 z m 4.599108,-19.444586 2.487364,-6.380433 c 2.581673,-6.622346 0.47063,-12.287338 -7.089125,-15.234452 -7.529516,-2.935326 -12.736316,-0.123141 -15.412296,6.741117 l -2.393056,6.138521 z m -1.883991,-5.88999 -15.179987,-5.917806 0.53048,-1.360756 c 1.638596,-4.203223 4.708656,-6.002164 10.15168,-3.880241 5.443023,2.121922 6.666903,5.594823 5.028308,9.798047 z m 10.848814,-15.485417 7.604936,-13.035682 -3.476182,-2.027983 -5.18444,8.886691 -5.550678,-3.238231 4.235868,-7.260735 -3.476182,-2.027982 -4.235868,7.260735 -4.793767,-2.796654 5.004538,-8.57832 -3.476182,-2.027983 -7.425034,12.727311 z m 10.3810107,-17.068334 3.0249342,-3.731313 -5.2440085,-4.251259 -1.1688894,-5.000367 12.3196952,1.965479 3.3110766,-4.084276 -16.7567048,-2.470716 -2.742625,-11.66593 -3.331516,4.109487 3.110636,12.758113 -0.06132,0.07563 -8.118128,-6.581275 -3.024935,3.731313 z M 6.7486856,38.545865 17.929432,28.409053 15.226282,25.42752 7.6041388,32.337993 3.2878185,27.577159 9.5153741,21.931063 6.8122241,18.94953 0.58466843,24.595626 -3.1430627,20.483997 4.2145899,13.81332 1.5114398,10.831787 -9.404816,20.728805 Z M 18.699416,12.005685 14.656196,5.8857097 17.255831,4.1682356 c 2.572556,-1.6995837 4.463731,-1.8987347 5.89496,0.2676282 1.413338,2.1392832 0.720816,4.1527631 -1.85174,5.8523472 z m 14.007752,6.188535 4.468124,-2.951909 -10.105538,-5.110068 c 1.711379,-2.4143045 1.993399,-5.2846523 0.0076,-8.2904807 -3.04136,-4.603521 -7.356112,-3.8923818 -11.58052,-1.10148643 L 8.5373627,5.338097 21.794116,25.404033 l 4.007771,-2.647773 -5.0093,-7.58227 2.789193,-1.842706 z m 7.794469,-4.67012 4.396689,-1.93444 -4.182571,-9.5063543 8.318061,-3.6597496 4.18257,9.5063548 4.366982,-1.9213686 -9.685266,-22.0131523 -4.366981,1.921368 3.829666,8.7042562 -8.31806,3.6597496 -3.829667,-8.7042558 -4.396689,1.9344388 z M 72.602695,2.3147934 c 6.186771,-1.47985766 9.338174,-7.1392253 7.518553,-14.7464284 -1.812071,-7.575637 -7.130408,-10.975469 -13.317179,-9.495611 -6.18677,1.479857 -9.391025,6.918269 -7.578955,14.4939064 1.819621,7.60720258 7.190811,11.2279908 13.377581,9.748133 z m -0.966437,-4.0403399 c -3.472168,0.83053237 -6.420293,-1.8681432 -7.61324,-6.8554379 -1.192946,-4.9872946 0.267771,-8.5069546 3.739939,-9.3374876 3.472167,-0.830532 6.399006,1.639637 7.591952,6.626932 1.192947,4.9872946 -0.246484,8.7354611 -3.718651,9.5659935 z"
               id="path4" /></g></g></g></g></g></svg>
